<?xml version="1.0" encoding="UTF-8" standalone="no"?>
<!DOCTYPE svg PUBLIC "-//W3C//DTD SVG 1.1//EN"
 "http://www.w3.org/Graphics/SVG/1.1/DTD/svg11.dtd">
<!-- Generated by graphviz version 15.0.0 (20260523.1842)
 -->
<!-- Title: schema Pages: 1 -->
<svg width="1765pt" height="1054pt"
 viewBox="0.00 0.00 1765.00 1054.00" xmlns="http://www.w3.org/2000/svg" xmlns:xlink="http://www.w3.org/1999/xlink">
<g id="graph0" class="graph" transform="scale(1 1) rotate(0) translate(4 1049.6)">
<title>schema</title>
<polygon fill="white" stroke="none" points="-4,4 -4,-1049.6 1760.5,-1049.6 1760.5,4 -4,4"/>
<!-- NASTAVNICI -->
<g id="node1" class="node">
<title>NASTAVNICI</title>
<polygon fill="white" stroke="none" points="582.13,-620 582.13,-881.2 818.18,-881.2 818.18,-620 582.13,-620"/>
<polygon fill="#2c3e50" stroke="none" points="583.13,-851.4 583.13,-880.2 817.18,-880.2 817.18,-851.4 583.13,-851.4"/>
<text xml:space="preserve" text-anchor="start" x="657.37" y="-862.6" font-family="Helvetica,sans-Serif" font-weight="bold" font-size="14.00" fill="white">NASTAVNICI</text>
<polygon fill="#fff7e0" stroke="none" points="583.13,-822.6 583.13,-851.4 742.95,-851.4 742.95,-822.6 583.13,-822.6"/>
<text xml:space="preserve" text-anchor="start" x="589.13" y="-833.8" font-family="Helvetica,sans-Serif" font-weight="bold" font-size="14.00">ID_Nastavnik</text>
<text xml:space="preserve" text-anchor="start" x="677.06" y="-833.8" font-family="Helvetica,sans-Serif" font-size="14.00"> </text>
<text xml:space="preserve" text-anchor="start" x="680.95" y="-833.8" font-family="Helvetica,sans-Serif" font-weight="bold" font-size="14.00" fill="#b8860b">PK</text>
<polygon fill="#fff7e0" stroke="none" points="742.95,-822.6 742.95,-851.4 817.18,-851.4 817.18,-822.6 742.95,-822.6"/>
<text xml:space="preserve" text-anchor="start" x="748.95" y="-831.4" font-family="Helvetica,sans-Serif" font-size="14.00" fill="#666666">INTEGER</text>
<text xml:space="preserve" text-anchor="start" x="589.13" y="-802.6" font-family="Helvetica,sans-Serif" font-size="14.00">Ime</text>
<text xml:space="preserve" text-anchor="start" x="748.95" y="-802.6" font-family="Helvetica,sans-Serif" font-size="14.00" fill="#666666">TEXT</text>
<text xml:space="preserve" text-anchor="start" x="589.13" y="-773.8" font-family="Helvetica,sans-Serif" font-size="14.00">Prezime</text>
<text xml:space="preserve" text-anchor="start" x="748.95" y="-773.8" font-family="Helvetica,sans-Serif" font-size="14.00" fill="#666666">TEXT</text>
<text xml:space="preserve" text-anchor="start" x="589.13" y="-745" font-family="Helvetica,sans-Serif" font-size="14.00">Datum_rodjenja</text>
<text xml:space="preserve" text-anchor="start" x="748.95" y="-745" font-family="Helvetica,sans-Serif" font-size="14.00" fill="#666666">TEXT</text>
<text xml:space="preserve" text-anchor="start" x="589.13" y="-716.2" font-family="Helvetica,sans-Serif" font-size="14.00">Pocetak_rada</text>
<text xml:space="preserve" text-anchor="start" x="748.95" y="-716.2" font-family="Helvetica,sans-Serif" font-size="14.00" fill="#666666">TEXT</text>
<text xml:space="preserve" text-anchor="start" x="589.13" y="-687.4" font-family="Helvetica,sans-Serif" font-size="14.00">Kraj_rada</text>
<text xml:space="preserve" text-anchor="start" x="748.95" y="-687.4" font-family="Helvetica,sans-Serif" font-size="14.00" fill="#666666">TEXT</text>
<text xml:space="preserve" text-anchor="start" x="589.13" y="-658.6" font-family="Helvetica,sans-Serif" font-size="14.00">Lista_zavrsenih_skola</text>
<text xml:space="preserve" text-anchor="start" x="748.95" y="-658.6" font-family="Helvetica,sans-Serif" font-size="14.00" fill="#666666">TEXT</text>
<text xml:space="preserve" text-anchor="start" x="589.13" y="-632.2" font-family="Helvetica,sans-Serif" font-size="14.00">ZVANJA_ID_Zvanje </text>
<text xml:space="preserve" text-anchor="start" x="718.29" y="-632.2" font-family="Helvetica,sans-Serif" font-weight="bold" font-size="14.00" fill="#4169e1">FK</text>
<text xml:space="preserve" text-anchor="start" x="748.95" y="-629.8" font-family="Helvetica,sans-Serif" font-size="14.00" fill="#666666">INTEGER</text>
<polygon fill="none" stroke="black" points="582.13,-620 582.13,-881.2 818.18,-881.2 818.18,-620 582.13,-620"/>
</g>
<!-- ZVANJA -->
<g id="node13" class="node">
<title>ZVANJA</title>
<polygon fill="white" stroke="none" points="1097.41,-591.4 1097.41,-679.8 1275.11,-679.8 1275.11,-591.4 1097.41,-591.4"/>
<polygon fill="#2c3e50" stroke="none" points="1098.41,-650 1098.41,-678.8 1274.11,-678.8 1274.11,-650 1098.41,-650"/>
<text xml:space="preserve" text-anchor="start" x="1158.25" y="-661.2" font-family="Helvetica,sans-Serif" font-weight="bold" font-size="14.00" fill="white">ZVANJA</text>
<polygon fill="#fff7e0" stroke="none" points="1098.41,-621.2 1098.41,-650 1199.88,-650 1199.88,-621.2 1098.41,-621.2"/>
<text xml:space="preserve" text-anchor="start" x="1104.41" y="-632.4" font-family="Helvetica,sans-Serif" font-weight="bold" font-size="14.00">ID_Zvanje</text>
<text xml:space="preserve" text-anchor="start" x="1170.54" y="-632.4" font-family="Helvetica,sans-Serif" font-size="14.00"> </text>
<text xml:space="preserve" text-anchor="start" x="1174.43" y="-632.4" font-family="Helvetica,sans-Serif" font-weight="bold" font-size="14.00" fill="#b8860b">PK</text>
<polygon fill="#fff7e0" stroke="none" points="1199.88,-621.2 1199.88,-650 1274.11,-650 1274.11,-621.2 1199.88,-621.2"/>
<text xml:space="preserve" text-anchor="start" x="1205.88" y="-630" font-family="Helvetica,sans-Serif" font-size="14.00" fill="#666666">INTEGER</text>
<text xml:space="preserve" text-anchor="start" x="1104.41" y="-601.2" font-family="Helvetica,sans-Serif" font-size="14.00">Naziv</text>
<text xml:space="preserve" text-anchor="start" x="1205.88" y="-601.2" font-family="Helvetica,sans-Serif" font-size="14.00" fill="#666666">TEXT</text>
<polygon fill="none" stroke="black" points="1097.41,-591.4 1097.41,-679.8 1275.11,-679.8 1275.11,-591.4 1097.41,-591.4"/>
</g>
<!-- NASTAVNICI&#45;&gt;ZVANJA -->
<g id="edge1" class="edge">
<title>NASTAVNICI:ZVANJA_ID_Zvanje&#45;&gt;ZVANJA:ID_Zvanje</title>
<path fill="none" stroke="#555555" d="M663.04,-620C663.04,-551.05 749.25,-618.98 818.18,-621 939.6,-624.56 971.71,-635.11 1089.17,-635.58"/>
<polygon fill="#555555" stroke="#555555" points="1088.89,-638.03 1095.89,-635.6 1088.9,-633.13 1088.89,-638.03"/>
<text xml:space="preserve" text-anchor="middle" x="939.51" y="-636.83" font-family="Helvetica,sans-Serif" font-size="10.00">ZVANJA_ID_Zvanje &#45;&gt; ID_Zvanje</text>
</g>
<!-- N_PREDMET -->
<g id="node2" class="node">
<title>N_PREDMET</title>
<polygon fill="white" stroke="none" points="12.61,-844 12.61,-961.2 305.45,-961.2 305.45,-844 12.61,-844"/>
<polygon fill="#2c3e50" stroke="none" points="13.61,-931.4 13.61,-960.2 304.45,-960.2 304.45,-931.4 13.61,-931.4"/>
<text xml:space="preserve" text-anchor="start" x="115.86" y="-942.6" font-family="Helvetica,sans-Serif" font-weight="bold" font-size="14.00" fill="white">N_PREDMET</text>
<polygon fill="#fff7e0" stroke="none" points="13.61,-902.6 13.61,-931.4 230.23,-931.4 230.23,-902.6 13.61,-902.6"/>
<text xml:space="preserve" text-anchor="start" x="19.61" y="-913.8" font-family="Helvetica,sans-Serif" font-weight="bold" font-size="14.00">PREDMETI_ID_Predmet</text>
<text xml:space="preserve" text-anchor="start" x="177.54" y="-913.8" font-family="Helvetica,sans-Serif" font-size="14.00"> </text>
<text xml:space="preserve" text-anchor="start" x="181.43" y="-913.8" font-family="Helvetica,sans-Serif" font-weight="bold" font-size="14.00" fill="#b8860b">PK</text>
<polygon fill="#fff7e0" stroke="none" points="230.23,-902.6 230.23,-931.4 304.45,-931.4 304.45,-902.6 230.23,-902.6"/>
<text xml:space="preserve" text-anchor="start" x="236.23" y="-911.4" font-family="Helvetica,sans-Serif" font-size="14.00" fill="#666666">INTEGER</text>
<polygon fill="#fff7e0" stroke="none" points="13.61,-873.8 13.61,-902.6 230.23,-902.6 230.23,-873.8 13.61,-873.8"/>
<text xml:space="preserve" text-anchor="start" x="19.61" y="-885" font-family="Helvetica,sans-Serif" font-weight="bold" font-size="14.00">NASTAVNICI_ID_Nastavnik</text>
<text xml:space="preserve" text-anchor="start" x="200.89" y="-885" font-family="Helvetica,sans-Serif" font-size="14.00"> </text>
<text xml:space="preserve" text-anchor="start" x="204.78" y="-885" font-family="Helvetica,sans-Serif" font-weight="bold" font-size="14.00" fill="#b8860b">PK</text>
<polygon fill="#fff7e0" stroke="none" points="230.23,-873.8 230.23,-902.6 304.45,-902.6 304.45,-873.8 230.23,-873.8"/>
<text xml:space="preserve" text-anchor="start" x="236.23" y="-882.6" font-family="Helvetica,sans-Serif" font-size="14.00" fill="#666666">INTEGER</text>
<text xml:space="preserve" text-anchor="start" x="19.61" y="-853.8" font-family="Helvetica,sans-Serif" font-size="14.00">Broj_sati_tjedno</text>
<text xml:space="preserve" text-anchor="start" x="236.23" y="-853.8" font-family="Helvetica,sans-Serif" font-size="14.00" fill="#666666">INTEGER</text>
<polygon fill="none" stroke="black" points="12.61,-844 12.61,-961.2 305.45,-961.2 305.45,-844 12.61,-844"/>
</g>
<!-- N_PREDMET&#45;&gt;NASTAVNICI -->
<g id="edge2" class="edge">
<title>N_PREDMET:NASTAVNICI_ID_Nastavnik&#45;&gt;NASTAVNICI:ID_Nastavnik</title>
<path fill="none" stroke="#555555" d="M12.61,-888.2C-7.04,-888.2 -0.35,-857.82 13.61,-844 191.19,-668.24 326.37,-833.21 573.66,-836.94"/>
<polygon fill="#555555" stroke="#555555" points="573.6,-839.39 580.61,-836.99 573.63,-834.49 573.6,-839.39"/>
<text xml:space="preserve" text-anchor="middle" x="441.07" y="-837.88" font-family="Helvetica,sans-Serif" font-size="10.00">NASTAVNICI_ID_Nastavnik &#45;&gt; ID_Nastavnik</text>
</g>
<!-- PREDMETI -->
<g id="node6" class="node">
<title>PREDMETI</title>
<polygon fill="white" stroke="none" points="605.47,-924.4 605.47,-1012.8 794.84,-1012.8 794.84,-924.4 605.47,-924.4"/>
<polygon fill="#2c3e50" stroke="none" points="606.47,-983 606.47,-1011.8 793.84,-1011.8 793.84,-983 606.47,-983"/>
<text xml:space="preserve" text-anchor="start" x="663.98" y="-994.2" font-family="Helvetica,sans-Serif" font-weight="bold" font-size="14.00" fill="white">PREDMETI</text>
<polygon fill="#fff7e0" stroke="none" points="606.47,-954.2 606.47,-983 719.61,-983 719.61,-954.2 606.47,-954.2"/>
<text xml:space="preserve" text-anchor="start" x="612.47" y="-965.4" font-family="Helvetica,sans-Serif" font-weight="bold" font-size="14.00">ID_Predmet</text>
<text xml:space="preserve" text-anchor="start" x="690.27" y="-965.4" font-family="Helvetica,sans-Serif" font-size="14.00"> </text>
<text xml:space="preserve" text-anchor="start" x="694.16" y="-965.4" font-family="Helvetica,sans-Serif" font-weight="bold" font-size="14.00" fill="#b8860b">PK</text>
<polygon fill="#fff7e0" stroke="none" points="719.61,-954.2 719.61,-983 793.84,-983 793.84,-954.2 719.61,-954.2"/>
<text xml:space="preserve" text-anchor="start" x="725.61" y="-963" font-family="Helvetica,sans-Serif" font-size="14.00" fill="#666666">INTEGER</text>
<text xml:space="preserve" text-anchor="start" x="612.47" y="-934.2" font-family="Helvetica,sans-Serif" font-size="14.00">Naziv</text>
<text xml:space="preserve" text-anchor="start" x="725.61" y="-934.2" font-family="Helvetica,sans-Serif" font-size="14.00" fill="#666666">TEXT</text>
<polygon fill="none" stroke="black" points="605.47,-924.4 605.47,-1012.8 794.84,-1012.8 794.84,-924.4 605.47,-924.4"/>
</g>
<!-- N_PREDMET&#45;&gt;PREDMETI -->
<g id="edge3" class="edge">
<title>N_PREDMET:PREDMETI_ID_Predmet&#45;&gt;PREDMETI:ID_Predmet</title>
<path fill="none" stroke="#555555" d="M12.61,-917C-7.04,-917 -0.35,-947.38 13.61,-961.2 198.56,-1144.28 339.35,-972.38 597.03,-968.66"/>
<polygon fill="#555555" stroke="#555555" points="596.97,-971.11 603.95,-968.61 596.93,-966.21 596.97,-971.11"/>
<text xml:space="preserve" text-anchor="middle" x="441.07" y="-1019.48" font-family="Helvetica,sans-Serif" font-size="10.00">PREDMETI_ID_Predmet &#45;&gt; ID_Predmet</text>
</g>
<!-- N_RAZRED -->
<g id="node3" class="node">
<title>N_RAZRED</title>
<polygon fill="white" stroke="none" points="12.61,-521.4 12.61,-609.8 305.45,-609.8 305.45,-521.4 12.61,-521.4"/>
<polygon fill="#2c3e50" stroke="none" points="13.61,-580 13.61,-608.8 304.45,-608.8 304.45,-580 13.61,-580"/>
<text xml:space="preserve" text-anchor="start" x="120.92" y="-591.2" font-family="Helvetica,sans-Serif" font-weight="bold" font-size="14.00" fill="white">N_RAZRED</text>
<polygon fill="#fff7e0" stroke="none" points="13.61,-551.2 13.61,-580 230.23,-580 230.23,-551.2 13.61,-551.2"/>
<text xml:space="preserve" text-anchor="start" x="19.61" y="-562.4" font-family="Helvetica,sans-Serif" font-weight="bold" font-size="14.00">RAZREDI_ID_Razred</text>
<text xml:space="preserve" text-anchor="start" x="158.09" y="-562.4" font-family="Helvetica,sans-Serif" font-size="14.00"> </text>
<text xml:space="preserve" text-anchor="start" x="161.98" y="-562.4" font-family="Helvetica,sans-Serif" font-weight="bold" font-size="14.00" fill="#b8860b">PK</text>
<polygon fill="#fff7e0" stroke="none" points="230.23,-551.2 230.23,-580 304.45,-580 304.45,-551.2 230.23,-551.2"/>
<text xml:space="preserve" text-anchor="start" x="236.23" y="-560" font-family="Helvetica,sans-Serif" font-size="14.00" fill="#666666">INTEGER</text>
<polygon fill="#fff7e0" stroke="none" points="13.61,-522.4 13.61,-551.2 230.23,-551.2 230.23,-522.4 13.61,-522.4"/>
<text xml:space="preserve" text-anchor="start" x="19.61" y="-533.6" font-family="Helvetica,sans-Serif" font-weight="bold" font-size="14.00">NASTAVNICI_ID_Nastavnik</text>
<text xml:space="preserve" text-anchor="start" x="200.89" y="-533.6" font-family="Helvetica,sans-Serif" font-size="14.00"> </text>
<text xml:space="preserve" text-anchor="start" x="204.78" y="-533.6" font-family="Helvetica,sans-Serif" font-weight="bold" font-size="14.00" fill="#b8860b">PK</text>
<polygon fill="#fff7e0" stroke="none" points="230.23,-522.4 230.23,-551.2 304.45,-551.2 304.45,-522.4 230.23,-522.4"/>
<text xml:space="preserve" text-anchor="start" x="236.23" y="-531.2" font-family="Helvetica,sans-Serif" font-size="14.00" fill="#666666">INTEGER</text>
<polygon fill="none" stroke="black" points="12.61,-521.4 12.61,-609.8 305.45,-609.8 305.45,-521.4 12.61,-521.4"/>
</g>
<!-- N_RAZRED&#45;&gt;NASTAVNICI -->
<g id="edge4" class="edge">
<title>N_RAZRED:NASTAVNICI_ID_Nastavnik&#45;&gt;NASTAVNICI:ID_Nastavnik</title>
<path fill="none" stroke="#555555" d="M121.92,-521.4C121.92,-480.61 266.09,-511.71 305.45,-522.4 422.04,-554.06 468.82,-561.49 540.69,-658.6 587.31,-721.6 507.1,-828.68 573.75,-836.54"/>
<polygon fill="#555555" stroke="#555555" points="573.49,-838.98 580.62,-836.92 573.76,-834.09 573.49,-838.98"/>
<text xml:space="preserve" text-anchor="middle" x="441.07" y="-661.6" font-family="Helvetica,sans-Serif" font-size="10.00">NASTAVNICI_ID_Nastavnik &#45;&gt; ID_Nastavnik</text>
</g>
<!-- RAZREDI -->
<g id="node8" class="node">
<title>RAZREDI</title>
<polygon fill="white" stroke="none" points="1075.23,-333.6 1075.23,-479.6 1297.29,-479.6 1297.29,-333.6 1075.23,-333.6"/>
<polygon fill="#2c3e50" stroke="none" points="1076.23,-449.8 1076.23,-478.6 1296.29,-478.6 1296.29,-449.8 1076.23,-449.8"/>
<text xml:space="preserve" text-anchor="start" x="1155.15" y="-461" font-family="Helvetica,sans-Serif" font-weight="bold" font-size="14.00" fill="white">RAZREDI</text>
<polygon fill="#fff7e0" stroke="none" points="1076.23,-421 1076.23,-449.8 1222.06,-449.8 1222.06,-421 1076.23,-421"/>
<text xml:space="preserve" text-anchor="start" x="1082.23" y="-432.2" font-family="Helvetica,sans-Serif" font-weight="bold" font-size="14.00">ID_Razred</text>
<text xml:space="preserve" text-anchor="start" x="1150.7" y="-432.2" font-family="Helvetica,sans-Serif" font-size="14.00"> </text>
<text xml:space="preserve" text-anchor="start" x="1154.59" y="-432.2" font-family="Helvetica,sans-Serif" font-weight="bold" font-size="14.00" fill="#b8860b">PK</text>
<polygon fill="#fff7e0" stroke="none" points="1222.06,-421 1222.06,-449.8 1296.29,-449.8 1296.29,-421 1222.06,-421"/>
<text xml:space="preserve" text-anchor="start" x="1228.06" y="-429.8" font-family="Helvetica,sans-Serif" font-size="14.00" fill="#666666">INTEGER</text>
<text xml:space="preserve" text-anchor="start" x="1082.23" y="-401" font-family="Helvetica,sans-Serif" font-size="14.00">Broj_razreda</text>
<text xml:space="preserve" text-anchor="start" x="1228.06" y="-401" font-family="Helvetica,sans-Serif" font-size="14.00" fill="#666666">INTEGER</text>
<text xml:space="preserve" text-anchor="start" x="1082.23" y="-372.2" font-family="Helvetica,sans-Serif" font-size="14.00">Slovo_razreda</text>
<text xml:space="preserve" text-anchor="start" x="1228.06" y="-372.2" font-family="Helvetica,sans-Serif" font-size="14.00" fill="#666666">TEXT</text>
<text xml:space="preserve" text-anchor="start" x="1082.23" y="-345.8" font-family="Helvetica,sans-Serif" font-size="14.00">SKOLE_ID_Skola </text>
<text xml:space="preserve" text-anchor="start" x="1197.4" y="-345.8" font-family="Helvetica,sans-Serif" font-weight="bold" font-size="14.00" fill="#4169e1">FK</text>
<text xml:space="preserve" text-anchor="start" x="1228.06" y="-343.4" font-family="Helvetica,sans-Serif" font-size="14.00" fill="#666666">INTEGER</text>
<polygon fill="none" stroke="black" points="1075.23,-333.6 1075.23,-479.6 1297.29,-479.6 1297.29,-333.6 1075.23,-333.6"/>
</g>
<!-- N_RAZRED&#45;&gt;RAZREDI -->
<g id="edge5" class="edge">
<title>N_RAZRED:RAZREDI_ID_Razred&#45;&gt;RAZREDI:ID_Razred</title>
<path fill="none" stroke="#555555" d="M12.61,-565.6C-7.04,-565.6 -0.44,-596.06 13.61,-609.8 106.36,-700.47 176.45,-623.25 305.45,-609.8 539.54,-585.4 594.5,-554.4 823.62,-500.6 933.33,-474.84 958.5,-437.29 1066.93,-435.47"/>
<polygon fill="#555555" stroke="#555555" points="1066.73,-437.92 1073.71,-435.41 1066.69,-433.02 1066.73,-437.92"/>
<text xml:space="preserve" text-anchor="middle" x="700.15" y="-566.03" font-family="Helvetica,sans-Serif" font-size="10.00">RAZREDI_ID_Razred &#45;&gt; ID_Razred</text>
</g>
<!-- OCJENE -->
<g id="node4" class="node">
<title>OCJENE</title>
<polygon fill="white" stroke="none" points="610.13,0 610.13,-117.2 790.17,-117.2 790.17,0 610.13,0"/>
<polygon fill="#2c3e50" stroke="none" points="611.13,-87.4 611.13,-116.2 789.17,-116.2 789.17,-87.4 611.13,-87.4"/>
<text xml:space="preserve" text-anchor="start" x="671.37" y="-98.6" font-family="Helvetica,sans-Serif" font-weight="bold" font-size="14.00" fill="white">OCJENE</text>
<polygon fill="#fff7e0" stroke="none" points="611.13,-58.6 611.13,-87.4 714.94,-87.4 714.94,-58.6 611.13,-58.6"/>
<text xml:space="preserve" text-anchor="start" x="617.13" y="-69.8" font-family="Helvetica,sans-Serif" font-weight="bold" font-size="14.00">ID_Ocjena</text>
<text xml:space="preserve" text-anchor="start" x="685.61" y="-69.8" font-family="Helvetica,sans-Serif" font-size="14.00"> </text>
<text xml:space="preserve" text-anchor="start" x="689.5" y="-69.8" font-family="Helvetica,sans-Serif" font-weight="bold" font-size="14.00" fill="#b8860b">PK</text>
<polygon fill="#fff7e0" stroke="none" points="714.94,-58.6 714.94,-87.4 789.17,-87.4 789.17,-58.6 714.94,-58.6"/>
<text xml:space="preserve" text-anchor="start" x="720.94" y="-67.4" font-family="Helvetica,sans-Serif" font-size="14.00" fill="#666666">INTEGER</text>
<text xml:space="preserve" text-anchor="start" x="617.13" y="-38.6" font-family="Helvetica,sans-Serif" font-size="14.00">Ocjena</text>
<text xml:space="preserve" text-anchor="start" x="720.94" y="-38.6" font-family="Helvetica,sans-Serif" font-size="14.00" fill="#666666">TEXT</text>
<text xml:space="preserve" text-anchor="start" x="617.13" y="-9.8" font-family="Helvetica,sans-Serif" font-size="14.00">Broj_ocjene</text>
<text xml:space="preserve" text-anchor="start" x="720.94" y="-9.8" font-family="Helvetica,sans-Serif" font-size="14.00" fill="#666666">INTEGER</text>
<polygon fill="none" stroke="black" points="610.13,0 610.13,-117.2 790.17,-117.2 790.17,0 610.13,0"/>
</g>
<!-- POSTE -->
<g id="node5" class="node">
<title>POSTE</title>
<polygon fill="white" stroke="none" points="1055.39,-75.6 1055.39,-221.6 1317.12,-221.6 1317.12,-75.6 1055.39,-75.6"/>
<polygon fill="#2c3e50" stroke="none" points="1056.39,-191.8 1056.39,-220.6 1316.12,-220.6 1316.12,-191.8 1056.39,-191.8"/>
<text xml:space="preserve" text-anchor="start" x="1162.53" y="-203" font-family="Helvetica,sans-Serif" font-weight="bold" font-size="14.00" fill="white">POSTE</text>
<polygon fill="#fff7e0" stroke="none" points="1056.39,-163 1056.39,-191.8 1241.9,-191.8 1241.9,-163 1056.39,-163"/>
<text xml:space="preserve" text-anchor="start" x="1062.39" y="-174.2" font-family="Helvetica,sans-Serif" font-weight="bold" font-size="14.00">ID_Posta</text>
<text xml:space="preserve" text-anchor="start" x="1122.3" y="-174.2" font-family="Helvetica,sans-Serif" font-size="14.00"> </text>
<text xml:space="preserve" text-anchor="start" x="1126.19" y="-174.2" font-family="Helvetica,sans-Serif" font-weight="bold" font-size="14.00" fill="#b8860b">PK</text>
<polygon fill="#fff7e0" stroke="none" points="1241.9,-163 1241.9,-191.8 1316.12,-191.8 1316.12,-163 1241.9,-163"/>
<text xml:space="preserve" text-anchor="start" x="1247.9" y="-171.8" font-family="Helvetica,sans-Serif" font-size="14.00" fill="#666666">INTEGER</text>
<text xml:space="preserve" text-anchor="start" x="1062.39" y="-143" font-family="Helvetica,sans-Serif" font-size="14.00">Postanski_broj</text>
<text xml:space="preserve" text-anchor="start" x="1247.9" y="-143" font-family="Helvetica,sans-Serif" font-size="14.00" fill="#666666">INTEGER</text>
<text xml:space="preserve" text-anchor="start" x="1062.39" y="-114.2" font-family="Helvetica,sans-Serif" font-size="14.00">Mjesto</text>
<text xml:space="preserve" text-anchor="start" x="1247.9" y="-114.2" font-family="Helvetica,sans-Serif" font-size="14.00" fill="#666666">TEXT</text>
<text xml:space="preserve" text-anchor="start" x="1062.39" y="-87.8" font-family="Helvetica,sans-Serif" font-size="14.00">ZUPANIJE_ID_Zupanija </text>
<text xml:space="preserve" text-anchor="start" x="1217.23" y="-87.8" font-family="Helvetica,sans-Serif" font-weight="bold" font-size="14.00" fill="#4169e1">FK</text>
<text xml:space="preserve" text-anchor="start" x="1247.9" y="-85.4" font-family="Helvetica,sans-Serif" font-size="14.00" fill="#666666">INTEGER</text>
<polygon fill="none" stroke="black" points="1055.39,-75.6 1055.39,-221.6 1317.12,-221.6 1317.12,-75.6 1055.39,-75.6"/>
</g>
<!-- ZUPANIJE -->
<g id="node12" class="node">
<title>ZUPANIJE</title>
<polygon fill="white" stroke="none" points="1565.59,-47.4 1565.59,-135.8 1756.5,-135.8 1756.5,-47.4 1565.59,-47.4"/>
<polygon fill="#2c3e50" stroke="none" points="1566.59,-106 1566.59,-134.8 1755.5,-134.8 1755.5,-106 1566.59,-106"/>
<text xml:space="preserve" text-anchor="start" x="1626.43" y="-117.2" font-family="Helvetica,sans-Serif" font-weight="bold" font-size="14.00" fill="white">ZUPANIJE</text>
<polygon fill="#fff7e0" stroke="none" points="1566.59,-77.2 1566.59,-106 1681.28,-106 1681.28,-77.2 1566.59,-77.2"/>
<text xml:space="preserve" text-anchor="start" x="1572.59" y="-88.4" font-family="Helvetica,sans-Serif" font-weight="bold" font-size="14.00">ID_Zupanija</text>
<text xml:space="preserve" text-anchor="start" x="1651.94" y="-88.4" font-family="Helvetica,sans-Serif" font-size="14.00"> </text>
<text xml:space="preserve" text-anchor="start" x="1655.83" y="-88.4" font-family="Helvetica,sans-Serif" font-weight="bold" font-size="14.00" fill="#b8860b">PK</text>
<polygon fill="#fff7e0" stroke="none" points="1681.28,-77.2 1681.28,-106 1755.5,-106 1755.5,-77.2 1681.28,-77.2"/>
<text xml:space="preserve" text-anchor="start" x="1687.28" y="-86" font-family="Helvetica,sans-Serif" font-size="14.00" fill="#666666">INTEGER</text>
<text xml:space="preserve" text-anchor="start" x="1572.59" y="-57.2" font-family="Helvetica,sans-Serif" font-size="14.00">Naziv</text>
<text xml:space="preserve" text-anchor="start" x="1687.28" y="-57.2" font-family="Helvetica,sans-Serif" font-size="14.00" fill="#666666">TEXT</text>
<polygon fill="none" stroke="black" points="1565.59,-47.4 1565.59,-135.8 1756.5,-135.8 1756.5,-47.4 1565.59,-47.4"/>
</g>
<!-- POSTE&#45;&gt;ZUPANIJE -->
<g id="edge6" class="edge">
<title>POSTE:ZUPANIJE_ID_Zupanija&#45;&gt;ZUPANIJE:ID_Zupanija</title>
<path fill="none" stroke="#555555" d="M1149.14,-75.6C1149.14,-0.94 1242.51,-74.13 1317.12,-76.6 1424.89,-80.17 1453.52,-91.03 1557.32,-91.58"/>
<polygon fill="#555555" stroke="#555555" points="1557.07,-94.03 1564.08,-91.6 1557.09,-89.13 1557.07,-94.03"/>
<text xml:space="preserve" text-anchor="middle" x="1441.36" y="-94.14" font-family="Helvetica,sans-Serif" font-size="10.00">ZUPANIJE_ID_Zupanija &#45;&gt; ID_Zupanija</text>
</g>
<!-- P_UCENIK -->
<g id="node7" class="node">
<title>P_UCENIK</title>
<polygon fill="white" stroke="none" points="24.28,-390.4 24.28,-478.8 293.78,-478.8 293.78,-390.4 24.28,-390.4"/>
<polygon fill="#2c3e50" stroke="none" points="25.28,-449 25.28,-477.8 292.78,-477.8 292.78,-449 25.28,-449"/>
<text xml:space="preserve" text-anchor="start" x="123.64" y="-460.2" font-family="Helvetica,sans-Serif" font-weight="bold" font-size="14.00" fill="white">P_UCENIK</text>
<polygon fill="#fff7e0" stroke="none" points="25.28,-420.2 25.28,-449 218.55,-449 218.55,-420.2 25.28,-420.2"/>
<text xml:space="preserve" text-anchor="start" x="31.28" y="-431.4" font-family="Helvetica,sans-Serif" font-weight="bold" font-size="14.00">UCENICI_ID_Ucenik</text>
<text xml:space="preserve" text-anchor="start" x="164.33" y="-431.4" font-family="Helvetica,sans-Serif" font-size="14.00"> </text>
<text xml:space="preserve" text-anchor="start" x="168.22" y="-431.4" font-family="Helvetica,sans-Serif" font-weight="bold" font-size="14.00" fill="#b8860b">PK</text>
<polygon fill="#fff7e0" stroke="none" points="218.55,-420.2 218.55,-449 292.78,-449 292.78,-420.2 218.55,-420.2"/>
<text xml:space="preserve" text-anchor="start" x="224.55" y="-429" font-family="Helvetica,sans-Serif" font-size="14.00" fill="#666666">INTEGER</text>
<polygon fill="#fff7e0" stroke="none" points="25.28,-391.4 25.28,-420.2 218.55,-420.2 218.55,-391.4 25.28,-391.4"/>
<text xml:space="preserve" text-anchor="start" x="31.28" y="-402.6" font-family="Helvetica,sans-Serif" font-weight="bold" font-size="14.00">PREDMETI_ID_Predmet</text>
<text xml:space="preserve" text-anchor="start" x="189.22" y="-402.6" font-family="Helvetica,sans-Serif" font-size="14.00"> </text>
<text xml:space="preserve" text-anchor="start" x="193.11" y="-402.6" font-family="Helvetica,sans-Serif" font-weight="bold" font-size="14.00" fill="#b8860b">PK</text>
<polygon fill="#fff7e0" stroke="none" points="218.55,-391.4 218.55,-420.2 292.78,-420.2 292.78,-391.4 218.55,-391.4"/>
<text xml:space="preserve" text-anchor="start" x="224.55" y="-400.2" font-family="Helvetica,sans-Serif" font-size="14.00" fill="#666666">INTEGER</text>
<polygon fill="none" stroke="black" points="24.28,-390.4 24.28,-478.8 293.78,-478.8 293.78,-390.4 24.28,-390.4"/>
</g>
<!-- P_UCENIK&#45;&gt;PREDMETI -->
<g id="edge7" class="edge">
<title>P_UCENIK:PREDMETI_ID_Predmet&#45;&gt;PREDMETI:ID_Predmet</title>
<path fill="none" stroke="#555555" d="M121.92,-390.4C121.92,-314.02 235.63,-341.87 293.78,-391.4 391.62,-474.73 264.11,-573.96 341.45,-676.6 400.49,-754.95 477.71,-696.38 540.69,-771.6 598,-840.06 518.57,-960.76 597.34,-968.24"/>
<polygon fill="#555555" stroke="#555555" points="596.85,-970.67 603.95,-968.53 597.07,-965.77 596.85,-970.67"/>
<text xml:space="preserve" text-anchor="middle" x="441.07" y="-774.6" font-family="Helvetica,sans-Serif" font-size="10.00">PREDMETI_ID_Predmet &#45;&gt; ID_Predmet</text>
</g>
<!-- UCENICI -->
<g id="node10" class="node">
<title>UCENICI</title>
<polygon fill="white" stroke="none" points="576.69,-160.2 576.69,-479 823.62,-479 823.62,-160.2 576.69,-160.2"/>
<polygon fill="#2c3e50" stroke="none" points="577.69,-449.2 577.69,-478 822.62,-478 822.62,-449.2 577.69,-449.2"/>
<text xml:space="preserve" text-anchor="start" x="671.37" y="-460.4" font-family="Helvetica,sans-Serif" font-weight="bold" font-size="14.00" fill="white">UCENICI</text>
<polygon fill="#fff7e0" stroke="none" points="577.69,-420.4 577.69,-449.2 748.39,-449.2 748.39,-420.4 577.69,-420.4"/>
<text xml:space="preserve" text-anchor="start" x="583.69" y="-431.6" font-family="Helvetica,sans-Serif" font-weight="bold" font-size="14.00">ID_Ucenik</text>
<text xml:space="preserve" text-anchor="start" x="651.38" y="-431.6" font-family="Helvetica,sans-Serif" font-size="14.00"> </text>
<text xml:space="preserve" text-anchor="start" x="655.27" y="-431.6" font-family="Helvetica,sans-Serif" font-weight="bold" font-size="14.00" fill="#b8860b">PK</text>
<polygon fill="#fff7e0" stroke="none" points="748.39,-420.4 748.39,-449.2 822.62,-449.2 822.62,-420.4 748.39,-420.4"/>
<text xml:space="preserve" text-anchor="start" x="754.39" y="-429.2" font-family="Helvetica,sans-Serif" font-size="14.00" fill="#666666">INTEGER</text>
<text xml:space="preserve" text-anchor="start" x="583.69" y="-400.4" font-family="Helvetica,sans-Serif" font-size="14.00">Ime</text>
<text xml:space="preserve" text-anchor="start" x="754.39" y="-400.4" font-family="Helvetica,sans-Serif" font-size="14.00" fill="#666666">TEXT</text>
<text xml:space="preserve" text-anchor="start" x="583.69" y="-371.6" font-family="Helvetica,sans-Serif" font-size="14.00">Prezime</text>
<text xml:space="preserve" text-anchor="start" x="754.39" y="-371.6" font-family="Helvetica,sans-Serif" font-size="14.00" fill="#666666">TEXT</text>
<text xml:space="preserve" text-anchor="start" x="583.69" y="-342.8" font-family="Helvetica,sans-Serif" font-size="14.00">Datum_rodjenja</text>
<text xml:space="preserve" text-anchor="start" x="754.39" y="-342.8" font-family="Helvetica,sans-Serif" font-size="14.00" fill="#666666">TEXT</text>
<text xml:space="preserve" text-anchor="start" x="583.69" y="-314" font-family="Helvetica,sans-Serif" font-size="14.00">OIB</text>
<text xml:space="preserve" text-anchor="start" x="754.39" y="-314" font-family="Helvetica,sans-Serif" font-size="14.00" fill="#666666">TEXT</text>
<text xml:space="preserve" text-anchor="start" x="583.69" y="-285.2" font-family="Helvetica,sans-Serif" font-size="14.00">Ime_oca</text>
<text xml:space="preserve" text-anchor="start" x="754.39" y="-285.2" font-family="Helvetica,sans-Serif" font-size="14.00" fill="#666666">TEXT</text>
<text xml:space="preserve" text-anchor="start" x="583.69" y="-256.4" font-family="Helvetica,sans-Serif" font-size="14.00">Adresa</text>
<text xml:space="preserve" text-anchor="start" x="754.39" y="-256.4" font-family="Helvetica,sans-Serif" font-size="14.00" fill="#666666">TEXT</text>
<text xml:space="preserve" text-anchor="start" x="583.69" y="-227.6" font-family="Helvetica,sans-Serif" font-size="14.00">Broj_upisanih_predmeta</text>
<text xml:space="preserve" text-anchor="start" x="754.39" y="-227.6" font-family="Helvetica,sans-Serif" font-size="14.00" fill="#666666">INTEGER</text>
<text xml:space="preserve" text-anchor="start" x="583.69" y="-201.2" font-family="Helvetica,sans-Serif" font-size="14.00">RAZREDI_ID_Razred </text>
<text xml:space="preserve" text-anchor="start" x="723.73" y="-201.2" font-family="Helvetica,sans-Serif" font-weight="bold" font-size="14.00" fill="#4169e1">FK</text>
<text xml:space="preserve" text-anchor="start" x="754.39" y="-198.8" font-family="Helvetica,sans-Serif" font-size="14.00" fill="#666666">INTEGER</text>
<text xml:space="preserve" text-anchor="start" x="583.69" y="-172.4" font-family="Helvetica,sans-Serif" font-size="14.00">POSTE_ID_Posta </text>
<text xml:space="preserve" text-anchor="start" x="700.4" y="-172.4" font-family="Helvetica,sans-Serif" font-weight="bold" font-size="14.00" fill="#4169e1">FK</text>
<text xml:space="preserve" text-anchor="start" x="754.39" y="-170" font-family="Helvetica,sans-Serif" font-size="14.00" fill="#666666">INTEGER</text>
<polygon fill="none" stroke="black" points="576.69,-160.2 576.69,-479 823.62,-479 823.62,-160.2 576.69,-160.2"/>
</g>
<!-- P_UCENIK&#45;&gt;UCENICI -->
<g id="edge8" class="edge">
<title>P_UCENIK:UCENICI_ID_Ucenik&#45;&gt;UCENICI:ID_Ucenik</title>
<path fill="none" stroke="#555555" d="M24.28,-434.6C4.64,-434.6 11.23,-465.06 25.28,-478.8 67.95,-520.51 235.1,-489.62 293.78,-478.8 316.08,-474.69 319.41,-465.92 341.45,-460.6 440.89,-436.58 469.93,-434.88 568.23,-434.8"/>
<polygon fill="#555555" stroke="#555555" points="568.17,-437.25 575.17,-434.8 568.17,-432.35 568.17,-437.25"/>
<text xml:space="preserve" text-anchor="middle" x="441.07" y="-463.6" font-family="Helvetica,sans-Serif" font-size="10.00">UCENICI_ID_Ucenik &#45;&gt; ID_Ucenik</text>
</g>
<!-- SKOLE -->
<g id="node9" class="node">
<title>SKOLE</title>
<polygon fill="white" stroke="none" points="1575.7,-277 1575.7,-394.2 1746.4,-394.2 1746.4,-277 1575.7,-277"/>
<polygon fill="#2c3e50" stroke="none" points="1576.7,-364.4 1576.7,-393.2 1745.4,-393.2 1745.4,-364.4 1576.7,-364.4"/>
<text xml:space="preserve" text-anchor="start" x="1636.93" y="-375.6" font-family="Helvetica,sans-Serif" font-weight="bold" font-size="14.00" fill="white">SKOLE</text>
<polygon fill="#fff7e0" stroke="none" points="1576.7,-335.6 1576.7,-364.4 1671.17,-364.4 1671.17,-335.6 1576.7,-335.6"/>
<text xml:space="preserve" text-anchor="start" x="1582.7" y="-346.8" font-family="Helvetica,sans-Serif" font-weight="bold" font-size="14.00">ID_Skola</text>
<text xml:space="preserve" text-anchor="start" x="1641.83" y="-346.8" font-family="Helvetica,sans-Serif" font-size="14.00"> </text>
<text xml:space="preserve" text-anchor="start" x="1645.72" y="-346.8" font-family="Helvetica,sans-Serif" font-weight="bold" font-size="14.00" fill="#b8860b">PK</text>
<polygon fill="#fff7e0" stroke="none" points="1671.17,-335.6 1671.17,-364.4 1745.4,-364.4 1745.4,-335.6 1671.17,-335.6"/>
<text xml:space="preserve" text-anchor="start" x="1677.17" y="-344.4" font-family="Helvetica,sans-Serif" font-size="14.00" fill="#666666">INTEGER</text>
<text xml:space="preserve" text-anchor="start" x="1582.7" y="-315.6" font-family="Helvetica,sans-Serif" font-size="14.00">Naziv</text>
<text xml:space="preserve" text-anchor="start" x="1677.17" y="-315.6" font-family="Helvetica,sans-Serif" font-size="14.00" fill="#666666">TEXT</text>
<text xml:space="preserve" text-anchor="start" x="1582.7" y="-286.8" font-family="Helvetica,sans-Serif" font-size="14.00">Adresa</text>
<text xml:space="preserve" text-anchor="start" x="1677.17" y="-286.8" font-family="Helvetica,sans-Serif" font-size="14.00" fill="#666666">TEXT</text>
<polygon fill="none" stroke="black" points="1575.7,-277 1575.7,-394.2 1746.4,-394.2 1746.4,-277 1575.7,-277"/>
</g>
<!-- RAZREDI&#45;&gt;SKOLE -->
<g id="edge9" class="edge">
<title>RAZREDI:SKOLE_ID_Skola&#45;&gt;SKOLE:ID_Skola</title>
<path fill="none" stroke="#555555" d="M1149.14,-333.6C1149.14,-267.76 1231.48,-332.56 1297.29,-334.6 1418.37,-338.36 1450.35,-349.48 1567.49,-349.98"/>
<polygon fill="#555555" stroke="#555555" points="1567.18,-352.43 1574.18,-350 1567.19,-347.53 1567.18,-352.43"/>
<text xml:space="preserve" text-anchor="middle" x="1441.36" y="-352.28" font-family="Helvetica,sans-Serif" font-size="10.00">SKOLE_ID_Skola &#45;&gt; ID_Skola</text>
</g>
<!-- UCENICI&#45;&gt;POSTE -->
<g id="edge10" class="edge">
<title>UCENICI:POSTE_ID_Posta&#45;&gt;POSTE:ID_Posta</title>
<path fill="none" stroke="#555555" d="M663.04,-160.2C663.04,-124.52 787.96,-159.84 823.62,-161.2 872.59,-163.06 990.9,-175.99 1046.95,-177.29"/>
<polygon fill="#555555" stroke="#555555" points="1046.85,-179.74 1053.88,-177.38 1046.91,-174.84 1046.85,-179.74"/>
<text xml:space="preserve" text-anchor="middle" x="939.51" y="-178.9" font-family="Helvetica,sans-Serif" font-size="10.00">POSTE_ID_Posta &#45;&gt; ID_Posta</text>
</g>
<!-- UCENICI&#45;&gt;RAZREDI -->
<g id="edge11" class="edge">
<title>UCENICI:RAZREDI_ID_Razred&#45;&gt;RAZREDI:ID_Razred</title>
<path fill="none" stroke="#555555" d="M576.69,-204.4C557.04,-204.4 563.64,-173.94 577.69,-160.2 597.23,-141.1 798.61,-149.18 823.62,-160.2 827.95,-162.11 1030.26,-390.46 1068.95,-429.69"/>
<polygon fill="#555555" stroke="#555555" points="1067.28,-431.49 1074.11,-434.38 1070.58,-427.86 1067.28,-431.49"/>
<text xml:space="preserve" text-anchor="middle" x="939.51" y="-373.52" font-family="Helvetica,sans-Serif" font-size="10.00">RAZREDI_ID_Razred &#45;&gt; ID_Razred</text>
</g>
<!-- ZAVRSNA_O -->
<g id="node11" class="node">
<title>ZAVRSNA_O</title>
<polygon fill="white" stroke="none" points="36.33,-158.4 36.33,-246.8 281.73,-246.8 281.73,-158.4 36.33,-158.4"/>
<polygon fill="#2c3e50" stroke="none" points="37.33,-217 37.33,-245.8 280.73,-245.8 280.73,-217 37.33,-217"/>
<text xml:space="preserve" text-anchor="start" x="115.86" y="-228.2" font-family="Helvetica,sans-Serif" font-weight="bold" font-size="14.00" fill="white">ZAVRSNA_O</text>
<polygon fill="#fff7e0" stroke="none" points="37.33,-188.2 37.33,-217 206.51,-217 206.51,-188.2 37.33,-188.2"/>
<text xml:space="preserve" text-anchor="start" x="43.33" y="-199.4" font-family="Helvetica,sans-Serif" font-weight="bold" font-size="14.00">UCENICI_ID_Ucenik</text>
<text xml:space="preserve" text-anchor="start" x="176.37" y="-199.4" font-family="Helvetica,sans-Serif" font-size="14.00"> </text>
<text xml:space="preserve" text-anchor="start" x="180.26" y="-199.4" font-family="Helvetica,sans-Serif" font-weight="bold" font-size="14.00" fill="#b8860b">PK</text>
<polygon fill="#fff7e0" stroke="none" points="206.51,-188.2 206.51,-217 280.73,-217 280.73,-188.2 206.51,-188.2"/>
<text xml:space="preserve" text-anchor="start" x="212.51" y="-197" font-family="Helvetica,sans-Serif" font-size="14.00" fill="#666666">INTEGER</text>
<polygon fill="#fff7e0" stroke="none" points="37.33,-159.4 37.33,-188.2 206.51,-188.2 206.51,-159.4 37.33,-159.4"/>
<text xml:space="preserve" text-anchor="start" x="43.33" y="-170.6" font-family="Helvetica,sans-Serif" font-weight="bold" font-size="14.00">OCJENE_ID_Ocjena</text>
<text xml:space="preserve" text-anchor="start" x="177.17" y="-170.6" font-family="Helvetica,sans-Serif" font-size="14.00"> </text>
<text xml:space="preserve" text-anchor="start" x="181.06" y="-170.6" font-family="Helvetica,sans-Serif" font-weight="bold" font-size="14.00" fill="#b8860b">PK</text>
<polygon fill="#fff7e0" stroke="none" points="206.51,-159.4 206.51,-188.2 280.73,-188.2 280.73,-159.4 206.51,-159.4"/>
<text xml:space="preserve" text-anchor="start" x="212.51" y="-168.2" font-family="Helvetica,sans-Serif" font-size="14.00" fill="#666666">INTEGER</text>
<polygon fill="none" stroke="black" points="36.33,-158.4 36.33,-246.8 281.73,-246.8 281.73,-158.4 36.33,-158.4"/>
</g>
<!-- ZAVRSNA_O&#45;&gt;OCJENE -->
<g id="edge12" class="edge">
<title>ZAVRSNA_O:OCJENE_ID_Ocjena&#45;&gt;OCJENE:ID_Ocjena</title>
<path fill="none" stroke="#555555" d="M121.92,-158.4C121.92,59.08 383.09,-69.63 601.72,-72.94"/>
<polygon fill="#555555" stroke="#555555" points="601.6,-75.38 608.62,-72.99 601.64,-70.48 601.6,-75.38"/>
<text xml:space="preserve" text-anchor="middle" x="441.07" y="-71.27" font-family="Helvetica,sans-Serif" font-size="10.00">OCJENE_ID_Ocjena &#45;&gt; ID_Ocjena</text>
</g>
<!-- ZAVRSNA_O&#45;&gt;UCENICI -->
<g id="edge13" class="edge">
<title>ZAVRSNA_O:UCENICI_ID_Ucenik&#45;&gt;UCENICI:ID_Ucenik</title>
<path fill="none" stroke="#555555" d="M36.33,-202.6C16.68,-202.6 25.64,-231.01 37.33,-246.8 177.54,-436.06 327.12,-313.26 540.69,-412.6 554.8,-419.17 557.34,-430.08 568.47,-433.64"/>
<polygon fill="#555555" stroke="#555555" points="567.91,-436.04 575.19,-434.59 568.6,-431.18 567.91,-436.04"/>
<text xml:space="preserve" text-anchor="middle" x="441.07" y="-415.6" font-family="Helvetica,sans-Serif" font-size="10.00">UCENICI_ID_Ucenik &#45;&gt; ID_Ucenik</text>
</g>
</g>
</svg>
