<?xml version="1.0" encoding="UTF-8" standalone="no"?>
<!DOCTYPE svg PUBLIC "-//W3C//DTD SVG 1.1//EN"
 "http://www.w3.org/Graphics/SVG/1.1/DTD/svg11.dtd">
<!-- Generated by graphviz version 15.0.0 (20260523.1842)
 -->
<!-- Title: schema Pages: 1 -->
<svg width="1829pt" height="1032pt"
 viewBox="0.00 0.00 1829.00 1032.00" xmlns="http://www.w3.org/2000/svg" xmlns:xlink="http://www.w3.org/1999/xlink">
<g id="graph0" class="graph" transform="scale(1 1) rotate(0) translate(4 1027.78)">
<title>schema</title>
<polygon fill="white" stroke="none" points="-4,4 -4,-1027.78 1825.3,-1027.78 1825.3,4 -4,4"/>
<!-- NASTAVNICI -->
<g id="node1" class="node">
<title>NASTAVNICI</title>
<polygon fill="white" stroke="none" points="1133.04,-787.4 1133.04,-1019.8 1369.08,-1019.8 1369.08,-787.4 1133.04,-787.4"/>
<polygon fill="#2c3e50" stroke="none" points="1134.04,-990 1134.04,-1018.8 1368.08,-1018.8 1368.08,-990 1134.04,-990"/>
<text xml:space="preserve" text-anchor="start" x="1208.28" y="-1001.2" font-family="Helvetica,sans-Serif" font-weight="bold" font-size="14.00" fill="white">NASTAVNICI</text>
<polygon fill="#fff7e0" stroke="none" points="1134.04,-961.2 1134.04,-990 1293.86,-990 1293.86,-961.2 1134.04,-961.2"/>
<text xml:space="preserve" text-anchor="start" x="1140.04" y="-972.4" font-family="Helvetica,sans-Serif" font-weight="bold" font-size="14.00">ID_Nastavnik</text>
<text xml:space="preserve" text-anchor="start" x="1227.97" y="-972.4" font-family="Helvetica,sans-Serif" font-size="14.00"> </text>
<text xml:space="preserve" text-anchor="start" x="1231.86" y="-972.4" font-family="Helvetica,sans-Serif" font-weight="bold" font-size="14.00" fill="#b8860b">PK</text>
<polygon fill="#fff7e0" stroke="none" points="1293.86,-961.2 1293.86,-990 1368.08,-990 1368.08,-961.2 1293.86,-961.2"/>
<text xml:space="preserve" text-anchor="start" x="1299.86" y="-970" font-family="Helvetica,sans-Serif" font-size="14.00" fill="#666666">INTEGER</text>
<text xml:space="preserve" text-anchor="start" x="1140.04" y="-941.2" font-family="Helvetica,sans-Serif" font-size="14.00">Ime</text>
<text xml:space="preserve" text-anchor="start" x="1299.86" y="-941.2" font-family="Helvetica,sans-Serif" font-size="14.00" fill="#666666">TEXT</text>
<text xml:space="preserve" text-anchor="start" x="1140.04" y="-912.4" font-family="Helvetica,sans-Serif" font-size="14.00">Prezime</text>
<text xml:space="preserve" text-anchor="start" x="1299.86" y="-912.4" font-family="Helvetica,sans-Serif" font-size="14.00" fill="#666666">TEXT</text>
<text xml:space="preserve" text-anchor="start" x="1140.04" y="-883.6" font-family="Helvetica,sans-Serif" font-size="14.00">Datum_rodjenja</text>
<text xml:space="preserve" text-anchor="start" x="1299.86" y="-883.6" font-family="Helvetica,sans-Serif" font-size="14.00" fill="#666666">TEXT</text>
<text xml:space="preserve" text-anchor="start" x="1140.04" y="-854.8" font-family="Helvetica,sans-Serif" font-size="14.00">Pocetak_rada</text>
<text xml:space="preserve" text-anchor="start" x="1299.86" y="-854.8" font-family="Helvetica,sans-Serif" font-size="14.00" fill="#666666">TEXT</text>
<text xml:space="preserve" text-anchor="start" x="1140.04" y="-826" font-family="Helvetica,sans-Serif" font-size="14.00">Kraj_rada</text>
<text xml:space="preserve" text-anchor="start" x="1299.86" y="-826" font-family="Helvetica,sans-Serif" font-size="14.00" fill="#666666">TEXT</text>
<text xml:space="preserve" text-anchor="start" x="1140.04" y="-799.6" font-family="Helvetica,sans-Serif" font-size="14.00">ZVANJA_ID_Zvanje </text>
<text xml:space="preserve" text-anchor="start" x="1269.19" y="-799.6" font-family="Helvetica,sans-Serif" font-weight="bold" font-size="14.00" fill="#4169e1">FK</text>
<text xml:space="preserve" text-anchor="start" x="1299.86" y="-797.2" font-family="Helvetica,sans-Serif" font-size="14.00" fill="#666666">INTEGER</text>
<polygon fill="none" stroke="black" points="1133.04,-787.4 1133.04,-1019.8 1369.08,-1019.8 1369.08,-787.4 1133.04,-787.4"/>
</g>
<!-- ZVANJA -->
<g id="node14" class="node">
<title>ZVANJA</title>
<polygon fill="white" stroke="none" points="1637,-759.4 1637,-847.8 1814.7,-847.8 1814.7,-759.4 1637,-759.4"/>
<polygon fill="#2c3e50" stroke="none" points="1638,-818 1638,-846.8 1813.7,-846.8 1813.7,-818 1638,-818"/>
<text xml:space="preserve" text-anchor="start" x="1697.85" y="-829.2" font-family="Helvetica,sans-Serif" font-weight="bold" font-size="14.00" fill="white">ZVANJA</text>
<polygon fill="#fff7e0" stroke="none" points="1638,-789.2 1638,-818 1739.47,-818 1739.47,-789.2 1638,-789.2"/>
<text xml:space="preserve" text-anchor="start" x="1644" y="-800.4" font-family="Helvetica,sans-Serif" font-weight="bold" font-size="14.00">ID_Zvanje</text>
<text xml:space="preserve" text-anchor="start" x="1710.14" y="-800.4" font-family="Helvetica,sans-Serif" font-size="14.00"> </text>
<text xml:space="preserve" text-anchor="start" x="1714.03" y="-800.4" font-family="Helvetica,sans-Serif" font-weight="bold" font-size="14.00" fill="#b8860b">PK</text>
<polygon fill="#fff7e0" stroke="none" points="1739.47,-789.2 1739.47,-818 1813.7,-818 1813.7,-789.2 1739.47,-789.2"/>
<text xml:space="preserve" text-anchor="start" x="1745.47" y="-798" font-family="Helvetica,sans-Serif" font-size="14.00" fill="#666666">INTEGER</text>
<text xml:space="preserve" text-anchor="start" x="1644" y="-769.2" font-family="Helvetica,sans-Serif" font-size="14.00">Naziv</text>
<text xml:space="preserve" text-anchor="start" x="1745.47" y="-769.2" font-family="Helvetica,sans-Serif" font-size="14.00" fill="#666666">TEXT</text>
<polygon fill="none" stroke="black" points="1637,-759.4 1637,-847.8 1814.7,-847.8 1814.7,-759.4 1637,-759.4"/>
</g>
<!-- NASTAVNICI&#45;&gt;ZVANJA -->
<g id="edge1" class="edge">
<title>NASTAVNICI:ZVANJA_ID_Zvanje&#45;&gt;ZVANJA:ID_Zvanje</title>
<path fill="none" stroke="#555555" d="M1213.95,-787.4C1213.95,-718.45 1300.17,-786.22 1369.08,-788.4 1485.49,-792.08 1516.3,-803.07 1628.76,-803.58"/>
<polygon fill="#555555" stroke="#555555" points="1628.48,-806.03 1635.48,-803.6 1628.49,-801.13 1628.48,-806.03"/>
<text xml:space="preserve" text-anchor="middle" x="1506.16" y="-806.04" font-family="Helvetica,sans-Serif" font-size="10.00">ZVANJA_ID_Zvanje &#45;&gt; ID_Zvanje</text>
</g>
<!-- NASTAVNIK_SKOLE -->
<g id="node2" class="node">
<title>NASTAVNIK_SKOLE</title>
<polygon fill="white" stroke="none" points="559.62,-786 559.62,-903.2 845.46,-903.2 845.46,-786 559.62,-786"/>
<polygon fill="#2c3e50" stroke="none" points="560.62,-873.4 560.62,-902.2 844.46,-902.2 844.46,-873.4 560.62,-873.4"/>
<text xml:space="preserve" text-anchor="start" x="633.7" y="-884.6" font-family="Helvetica,sans-Serif" font-weight="bold" font-size="14.00" fill="white">NASTAVNIK_SKOLE</text>
<polygon fill="#fff7e0" stroke="none" points="560.62,-844.6 560.62,-873.4 770.23,-873.4 770.23,-844.6 560.62,-844.6"/>
<text xml:space="preserve" text-anchor="start" x="566.62" y="-855.8" font-family="Helvetica,sans-Serif" font-weight="bold" font-size="14.00">ID</text>
<text xml:space="preserve" text-anchor="start" x="580.62" y="-855.8" font-family="Helvetica,sans-Serif" font-size="14.00"> </text>
<text xml:space="preserve" text-anchor="start" x="584.51" y="-855.8" font-family="Helvetica,sans-Serif" font-weight="bold" font-size="14.00" fill="#b8860b">PK</text>
<polygon fill="#fff7e0" stroke="none" points="770.23,-844.6 770.23,-873.4 844.46,-873.4 844.46,-844.6 770.23,-844.6"/>
<text xml:space="preserve" text-anchor="start" x="776.23" y="-853.4" font-family="Helvetica,sans-Serif" font-size="14.00" fill="#666666">INTEGER</text>
<text xml:space="preserve" text-anchor="start" x="566.62" y="-827" font-family="Helvetica,sans-Serif" font-size="14.00">NASTAVNICI_ID_Nastavnik </text>
<text xml:space="preserve" text-anchor="start" x="745.57" y="-827" font-family="Helvetica,sans-Serif" font-weight="bold" font-size="14.00" fill="#4169e1">FK</text>
<text xml:space="preserve" text-anchor="start" x="776.23" y="-824.6" font-family="Helvetica,sans-Serif" font-size="14.00" fill="#666666">INTEGER</text>
<text xml:space="preserve" text-anchor="start" x="566.62" y="-798.2" font-family="Helvetica,sans-Serif" font-size="14.00">SKOLE_ID_Skola </text>
<text xml:space="preserve" text-anchor="start" x="681.8" y="-798.2" font-family="Helvetica,sans-Serif" font-weight="bold" font-size="14.00" fill="#4169e1">FK</text>
<text xml:space="preserve" text-anchor="start" x="776.23" y="-795.8" font-family="Helvetica,sans-Serif" font-size="14.00" fill="#666666">INTEGER</text>
<polygon fill="none" stroke="black" points="559.62,-786 559.62,-903.2 845.46,-903.2 845.46,-786 559.62,-786"/>
</g>
<!-- NASTAVNIK_SKOLE&#45;&gt;NASTAVNICI -->
<g id="edge3" class="edge">
<title>NASTAVNIK_SKOLE:NASTAVNICI_ID_Nastavnik&#45;&gt;NASTAVNICI:ID_Nastavnik</title>
<path fill="none" stroke="#555555" d="M559.62,-830.2C539.97,-830.2 546.57,-799.74 560.62,-786 583.25,-763.88 815.14,-776.91 845.46,-786 853.85,-788.52 1080.14,-945.51 1125.45,-971.87"/>
<polygon fill="#555555" stroke="#555555" points="1124.32,-974.04 1131.68,-974.93 1126.48,-969.64 1124.32,-974.04"/>
<text xml:space="preserve" text-anchor="middle" x="984.58" y="-947.84" font-family="Helvetica,sans-Serif" font-size="10.00">NASTAVNICI_ID_Nastavnik &#45;&gt; ID_Nastavnik</text>
</g>
<!-- SKOLE -->
<g id="node10" class="node">
<title>SKOLE</title>
<polygon fill="white" stroke="none" points="1640.5,-560 1640.5,-677.2 1811.2,-677.2 1811.2,-560 1640.5,-560"/>
<polygon fill="#2c3e50" stroke="none" points="1641.5,-647.4 1641.5,-676.2 1810.2,-676.2 1810.2,-647.4 1641.5,-647.4"/>
<text xml:space="preserve" text-anchor="start" x="1701.74" y="-658.6" font-family="Helvetica,sans-Serif" font-weight="bold" font-size="14.00" fill="white">SKOLE</text>
<polygon fill="#fff7e0" stroke="none" points="1641.5,-618.6 1641.5,-647.4 1735.97,-647.4 1735.97,-618.6 1641.5,-618.6"/>
<text xml:space="preserve" text-anchor="start" x="1647.5" y="-629.8" font-family="Helvetica,sans-Serif" font-weight="bold" font-size="14.00">ID_Skola</text>
<text xml:space="preserve" text-anchor="start" x="1706.64" y="-629.8" font-family="Helvetica,sans-Serif" font-size="14.00"> </text>
<text xml:space="preserve" text-anchor="start" x="1710.53" y="-629.8" font-family="Helvetica,sans-Serif" font-weight="bold" font-size="14.00" fill="#b8860b">PK</text>
<polygon fill="#fff7e0" stroke="none" points="1735.97,-618.6 1735.97,-647.4 1810.2,-647.4 1810.2,-618.6 1735.97,-618.6"/>
<text xml:space="preserve" text-anchor="start" x="1741.97" y="-627.4" font-family="Helvetica,sans-Serif" font-size="14.00" fill="#666666">INTEGER</text>
<text xml:space="preserve" text-anchor="start" x="1647.5" y="-598.6" font-family="Helvetica,sans-Serif" font-size="14.00">Naziv</text>
<text xml:space="preserve" text-anchor="start" x="1741.97" y="-598.6" font-family="Helvetica,sans-Serif" font-size="14.00" fill="#666666">TEXT</text>
<text xml:space="preserve" text-anchor="start" x="1647.5" y="-569.8" font-family="Helvetica,sans-Serif" font-size="14.00">Adresa</text>
<text xml:space="preserve" text-anchor="start" x="1741.97" y="-569.8" font-family="Helvetica,sans-Serif" font-size="14.00" fill="#666666">TEXT</text>
<polygon fill="none" stroke="black" points="1640.5,-560 1640.5,-677.2 1811.2,-677.2 1811.2,-560 1640.5,-560"/>
</g>
<!-- NASTAVNIK_SKOLE&#45;&gt;SKOLE -->
<g id="edge2" class="edge">
<title>NASTAVNIK_SKOLE:SKOLE_ID_Skola&#45;&gt;SKOLE:ID_Skola</title>
<path fill="none" stroke="#555555" d="M665.43,-786C665.43,-765.47 828.62,-767.35 848.96,-764.6 1181.15,-719.62 1269.54,-732.32 1594.39,-649.6 1612.53,-644.98 1617.46,-636.04 1632.31,-633.62"/>
<polygon fill="#555555" stroke="#555555" points="1632.19,-636.08 1638.99,-633.11 1631.82,-631.2 1632.19,-636.08"/>
<text xml:space="preserve" text-anchor="middle" x="1251.06" y="-735.71" font-family="Helvetica,sans-Serif" font-size="10.00">SKOLE_ID_Skola &#45;&gt; ID_Skola</text>
</g>
<!-- N_PREDMET -->
<g id="node3" class="node">
<title>N_PREDMET</title>
<polygon fill="white" stroke="none" points="12.61,-787.4 12.61,-875.8 305.45,-875.8 305.45,-787.4 12.61,-787.4"/>
<polygon fill="#2c3e50" stroke="none" points="13.61,-846 13.61,-874.8 304.45,-874.8 304.45,-846 13.61,-846"/>
<text xml:space="preserve" text-anchor="start" x="115.86" y="-857.2" font-family="Helvetica,sans-Serif" font-weight="bold" font-size="14.00" fill="white">N_PREDMET</text>
<polygon fill="#fff7e0" stroke="none" points="13.61,-817.2 13.61,-846 230.23,-846 230.23,-817.2 13.61,-817.2"/>
<text xml:space="preserve" text-anchor="start" x="19.61" y="-828.4" font-family="Helvetica,sans-Serif" font-weight="bold" font-size="14.00">PREDMETI_ID_Predmet</text>
<text xml:space="preserve" text-anchor="start" x="177.54" y="-828.4" font-family="Helvetica,sans-Serif" font-size="14.00"> </text>
<text xml:space="preserve" text-anchor="start" x="181.43" y="-828.4" font-family="Helvetica,sans-Serif" font-weight="bold" font-size="14.00" fill="#b8860b">PK</text>
<polygon fill="#fff7e0" stroke="none" points="230.23,-817.2 230.23,-846 304.45,-846 304.45,-817.2 230.23,-817.2"/>
<text xml:space="preserve" text-anchor="start" x="236.23" y="-826" font-family="Helvetica,sans-Serif" font-size="14.00" fill="#666666">INTEGER</text>
<polygon fill="#fff7e0" stroke="none" points="13.61,-788.4 13.61,-817.2 230.23,-817.2 230.23,-788.4 13.61,-788.4"/>
<text xml:space="preserve" text-anchor="start" x="19.61" y="-799.6" font-family="Helvetica,sans-Serif" font-weight="bold" font-size="14.00">NASTAVNICI_ID_Nastavnik</text>
<text xml:space="preserve" text-anchor="start" x="200.89" y="-799.6" font-family="Helvetica,sans-Serif" font-size="14.00"> </text>
<text xml:space="preserve" text-anchor="start" x="204.78" y="-799.6" font-family="Helvetica,sans-Serif" font-weight="bold" font-size="14.00" fill="#b8860b">PK</text>
<polygon fill="#fff7e0" stroke="none" points="230.23,-788.4 230.23,-817.2 304.45,-817.2 304.45,-788.4 230.23,-788.4"/>
<text xml:space="preserve" text-anchor="start" x="236.23" y="-797.2" font-family="Helvetica,sans-Serif" font-size="14.00" fill="#666666">INTEGER</text>
<polygon fill="none" stroke="black" points="12.61,-787.4 12.61,-875.8 305.45,-875.8 305.45,-787.4 12.61,-787.4"/>
</g>
<!-- N_PREDMET&#45;&gt;NASTAVNICI -->
<g id="edge4" class="edge">
<title>N_PREDMET:NASTAVNICI_ID_Nastavnik&#45;&gt;NASTAVNICI:ID_Nastavnik</title>
<path fill="none" stroke="#555555" d="M121.92,-787.4C121.92,-705.83 237.78,-742.86 305.45,-788.4 340.24,-811.81 309.43,-848.53 341.45,-875.6 610.14,-1102.76 775.82,-977.59 1124.76,-975.62"/>
<polygon fill="#555555" stroke="#555555" points="1124.53,-978.07 1131.52,-975.6 1124.52,-973.17 1124.53,-978.07"/>
<text xml:space="preserve" text-anchor="middle" x="702.54" y="-1014.78" font-family="Helvetica,sans-Serif" font-size="10.00">NASTAVNICI_ID_Nastavnik &#45;&gt; ID_Nastavnik</text>
</g>
<!-- PREDMETI -->
<g id="node7" class="node">
<title>PREDMETI</title>
<polygon fill="white" stroke="none" points="607.85,-494 607.85,-611.2 797.23,-611.2 797.23,-494 607.85,-494"/>
<polygon fill="#2c3e50" stroke="none" points="608.85,-581.4 608.85,-610.2 796.23,-610.2 796.23,-581.4 608.85,-581.4"/>
<text xml:space="preserve" text-anchor="start" x="666.37" y="-592.6" font-family="Helvetica,sans-Serif" font-weight="bold" font-size="14.00" fill="white">PREDMETI</text>
<polygon fill="#fff7e0" stroke="none" points="608.85,-552.6 608.85,-581.4 722,-581.4 722,-552.6 608.85,-552.6"/>
<text xml:space="preserve" text-anchor="start" x="614.85" y="-563.8" font-family="Helvetica,sans-Serif" font-weight="bold" font-size="14.00">ID_Predmet</text>
<text xml:space="preserve" text-anchor="start" x="692.66" y="-563.8" font-family="Helvetica,sans-Serif" font-size="14.00"> </text>
<text xml:space="preserve" text-anchor="start" x="696.55" y="-563.8" font-family="Helvetica,sans-Serif" font-weight="bold" font-size="14.00" fill="#b8860b">PK</text>
<polygon fill="#fff7e0" stroke="none" points="722,-552.6 722,-581.4 796.23,-581.4 796.23,-552.6 722,-552.6"/>
<text xml:space="preserve" text-anchor="start" x="728" y="-561.4" font-family="Helvetica,sans-Serif" font-size="14.00" fill="#666666">INTEGER</text>
<text xml:space="preserve" text-anchor="start" x="614.85" y="-532.6" font-family="Helvetica,sans-Serif" font-size="14.00">Naziv</text>
<text xml:space="preserve" text-anchor="start" x="728" y="-532.6" font-family="Helvetica,sans-Serif" font-size="14.00" fill="#666666">TEXT</text>
<text xml:space="preserve" text-anchor="start" x="614.85" y="-503.8" font-family="Helvetica,sans-Serif" font-size="14.00">Broj_sati_tjedno</text>
<text xml:space="preserve" text-anchor="start" x="728" y="-503.8" font-family="Helvetica,sans-Serif" font-size="14.00" fill="#666666">INTEGER</text>
<polygon fill="none" stroke="black" points="607.85,-494 607.85,-611.2 797.23,-611.2 797.23,-494 607.85,-494"/>
</g>
<!-- N_PREDMET&#45;&gt;PREDMETI -->
<g id="edge5" class="edge">
<title>N_PREDMET:PREDMETI_ID_Predmet&#45;&gt;PREDMETI:ID_Predmet</title>
<path fill="none" stroke="#555555" d="M12.61,-831.6C-7.04,-831.6 -0.44,-862.06 13.61,-875.8 106.36,-966.47 185.88,-926.06 305.45,-875.8 479.94,-802.45 417.67,-573.83 599.58,-567.15"/>
<polygon fill="#555555" stroke="#555555" points="599.39,-569.6 606.34,-567.03 599.3,-564.7 599.39,-569.6"/>
<text xml:space="preserve" text-anchor="middle" x="430.79" y="-857.09" font-family="Helvetica,sans-Serif" font-size="10.00">PREDMETI_ID_Predmet &#45;&gt; ID_Predmet</text>
</g>
<!-- N_RAZRED -->
<g id="node4" class="node">
<title>N_RAZRED</title>
<polygon fill="white" stroke="none" points="556.12,-654.4 556.12,-742.8 848.96,-742.8 848.96,-654.4 556.12,-654.4"/>
<polygon fill="#2c3e50" stroke="none" points="557.12,-713 557.12,-741.8 847.96,-741.8 847.96,-713 557.12,-713"/>
<text xml:space="preserve" text-anchor="start" x="664.43" y="-724.2" font-family="Helvetica,sans-Serif" font-weight="bold" font-size="14.00" fill="white">N_RAZRED</text>
<polygon fill="#fff7e0" stroke="none" points="557.12,-684.2 557.12,-713 773.73,-713 773.73,-684.2 557.12,-684.2"/>
<text xml:space="preserve" text-anchor="start" x="563.12" y="-695.4" font-family="Helvetica,sans-Serif" font-weight="bold" font-size="14.00">RAZREDI_ID_Razred</text>
<text xml:space="preserve" text-anchor="start" x="701.6" y="-695.4" font-family="Helvetica,sans-Serif" font-size="14.00"> </text>
<text xml:space="preserve" text-anchor="start" x="705.49" y="-695.4" font-family="Helvetica,sans-Serif" font-weight="bold" font-size="14.00" fill="#b8860b">PK</text>
<polygon fill="#fff7e0" stroke="none" points="773.73,-684.2 773.73,-713 847.96,-713 847.96,-684.2 773.73,-684.2"/>
<text xml:space="preserve" text-anchor="start" x="779.73" y="-693" font-family="Helvetica,sans-Serif" font-size="14.00" fill="#666666">INTEGER</text>
<polygon fill="#fff7e0" stroke="none" points="557.12,-655.4 557.12,-684.2 773.73,-684.2 773.73,-655.4 557.12,-655.4"/>
<text xml:space="preserve" text-anchor="start" x="563.12" y="-666.6" font-family="Helvetica,sans-Serif" font-weight="bold" font-size="14.00">NASTAVNICI_ID_Nastavnik</text>
<text xml:space="preserve" text-anchor="start" x="744.4" y="-666.6" font-family="Helvetica,sans-Serif" font-size="14.00"> </text>
<text xml:space="preserve" text-anchor="start" x="748.29" y="-666.6" font-family="Helvetica,sans-Serif" font-weight="bold" font-size="14.00" fill="#b8860b">PK</text>
<polygon fill="#fff7e0" stroke="none" points="773.73,-655.4 773.73,-684.2 847.96,-684.2 847.96,-655.4 773.73,-655.4"/>
<text xml:space="preserve" text-anchor="start" x="779.73" y="-664.2" font-family="Helvetica,sans-Serif" font-size="14.00" fill="#666666">INTEGER</text>
<polygon fill="none" stroke="black" points="556.12,-654.4 556.12,-742.8 848.96,-742.8 848.96,-654.4 556.12,-654.4"/>
</g>
<!-- N_RAZRED&#45;&gt;NASTAVNICI -->
<g id="edge6" class="edge">
<title>N_RAZRED:NASTAVNICI_ID_Nastavnik&#45;&gt;NASTAVNICI:ID_Nastavnik</title>
<path fill="none" stroke="#555555" d="M665.43,-654.4C665.43,-613.61 809.58,-644.77 848.96,-655.4 965.38,-686.81 1010.87,-694.87 1084.19,-790.6 1134.09,-855.74 1054,-967.4 1124.69,-975.17"/>
<polygon fill="#555555" stroke="#555555" points="1124.41,-977.61 1131.52,-975.52 1124.66,-972.72 1124.41,-977.61"/>
<text xml:space="preserve" text-anchor="middle" x="984.58" y="-793.6" font-family="Helvetica,sans-Serif" font-size="10.00">NASTAVNICI_ID_Nastavnik &#45;&gt; ID_Nastavnik</text>
</g>
<!-- RAZREDI -->
<g id="node9" class="node">
<title>RAZREDI</title>
<polygon fill="white" stroke="none" points="1140.03,-500.6 1140.03,-646.6 1362.09,-646.6 1362.09,-500.6 1140.03,-500.6"/>
<polygon fill="#2c3e50" stroke="none" points="1141.03,-616.8 1141.03,-645.6 1361.09,-645.6 1361.09,-616.8 1141.03,-616.8"/>
<text xml:space="preserve" text-anchor="start" x="1219.95" y="-628" font-family="Helvetica,sans-Serif" font-weight="bold" font-size="14.00" fill="white">RAZREDI</text>
<polygon fill="#fff7e0" stroke="none" points="1141.03,-588 1141.03,-616.8 1286.86,-616.8 1286.86,-588 1141.03,-588"/>
<text xml:space="preserve" text-anchor="start" x="1147.03" y="-599.2" font-family="Helvetica,sans-Serif" font-weight="bold" font-size="14.00">ID_Razred</text>
<text xml:space="preserve" text-anchor="start" x="1215.5" y="-599.2" font-family="Helvetica,sans-Serif" font-size="14.00"> </text>
<text xml:space="preserve" text-anchor="start" x="1219.39" y="-599.2" font-family="Helvetica,sans-Serif" font-weight="bold" font-size="14.00" fill="#b8860b">PK</text>
<polygon fill="#fff7e0" stroke="none" points="1286.86,-588 1286.86,-616.8 1361.09,-616.8 1361.09,-588 1286.86,-588"/>
<text xml:space="preserve" text-anchor="start" x="1292.86" y="-596.8" font-family="Helvetica,sans-Serif" font-size="14.00" fill="#666666">INTEGER</text>
<text xml:space="preserve" text-anchor="start" x="1147.03" y="-568" font-family="Helvetica,sans-Serif" font-size="14.00">Broj_razreda</text>
<text xml:space="preserve" text-anchor="start" x="1292.86" y="-568" font-family="Helvetica,sans-Serif" font-size="14.00" fill="#666666">INTEGER</text>
<text xml:space="preserve" text-anchor="start" x="1147.03" y="-539.2" font-family="Helvetica,sans-Serif" font-size="14.00">Slovo_razreda</text>
<text xml:space="preserve" text-anchor="start" x="1292.86" y="-539.2" font-family="Helvetica,sans-Serif" font-size="14.00" fill="#666666">TEXT</text>
<text xml:space="preserve" text-anchor="start" x="1147.03" y="-512.8" font-family="Helvetica,sans-Serif" font-size="14.00">SKOLE_ID_Skola </text>
<text xml:space="preserve" text-anchor="start" x="1262.2" y="-512.8" font-family="Helvetica,sans-Serif" font-weight="bold" font-size="14.00" fill="#4169e1">FK</text>
<text xml:space="preserve" text-anchor="start" x="1292.86" y="-510.4" font-family="Helvetica,sans-Serif" font-size="14.00" fill="#666666">INTEGER</text>
<polygon fill="none" stroke="black" points="1140.03,-500.6 1140.03,-646.6 1362.09,-646.6 1362.09,-500.6 1140.03,-500.6"/>
</g>
<!-- N_RAZRED&#45;&gt;RAZREDI -->
<g id="edge7" class="edge">
<title>N_RAZRED:RAZREDI_ID_Razred&#45;&gt;RAZREDI:ID_Razred</title>
<path fill="none" stroke="#555555" d="M556.12,-698.6C536.47,-698.6 543.07,-729.06 557.12,-742.8 580.31,-765.47 822.99,-762.22 848.96,-742.8 894.3,-708.89 840.86,-656.1 884.96,-620.6 971.33,-551.07 1023.77,-599.88 1131.81,-602.31"/>
<polygon fill="#555555" stroke="#555555" points="1131.49,-604.75 1138.52,-602.38 1131.54,-599.85 1131.49,-604.75"/>
<text xml:space="preserve" text-anchor="middle" x="984.58" y="-623.6" font-family="Helvetica,sans-Serif" font-size="10.00">RAZREDI_ID_Razred &#45;&gt; ID_Razred</text>
</g>
<!-- OCJENE -->
<g id="node5" class="node">
<title>OCJENE</title>
<polygon fill="white" stroke="none" points="612.52,0 612.52,-117.2 792.56,-117.2 792.56,0 612.52,0"/>
<polygon fill="#2c3e50" stroke="none" points="613.52,-87.4 613.52,-116.2 791.56,-116.2 791.56,-87.4 613.52,-87.4"/>
<text xml:space="preserve" text-anchor="start" x="673.75" y="-98.6" font-family="Helvetica,sans-Serif" font-weight="bold" font-size="14.00" fill="white">OCJENE</text>
<polygon fill="#fff7e0" stroke="none" points="613.52,-58.6 613.52,-87.4 717.33,-87.4 717.33,-58.6 613.52,-58.6"/>
<text xml:space="preserve" text-anchor="start" x="619.52" y="-69.8" font-family="Helvetica,sans-Serif" font-weight="bold" font-size="14.00">ID_Ocjena</text>
<text xml:space="preserve" text-anchor="start" x="688" y="-69.8" font-family="Helvetica,sans-Serif" font-size="14.00"> </text>
<text xml:space="preserve" text-anchor="start" x="691.89" y="-69.8" font-family="Helvetica,sans-Serif" font-weight="bold" font-size="14.00" fill="#b8860b">PK</text>
<polygon fill="#fff7e0" stroke="none" points="717.33,-58.6 717.33,-87.4 791.56,-87.4 791.56,-58.6 717.33,-58.6"/>
<text xml:space="preserve" text-anchor="start" x="723.33" y="-67.4" font-family="Helvetica,sans-Serif" font-size="14.00" fill="#666666">INTEGER</text>
<text xml:space="preserve" text-anchor="start" x="619.52" y="-38.6" font-family="Helvetica,sans-Serif" font-size="14.00">Ocjena</text>
<text xml:space="preserve" text-anchor="start" x="723.33" y="-38.6" font-family="Helvetica,sans-Serif" font-size="14.00" fill="#666666">TEXT</text>
<text xml:space="preserve" text-anchor="start" x="619.52" y="-9.8" font-family="Helvetica,sans-Serif" font-size="14.00">Broj_ocjene</text>
<text xml:space="preserve" text-anchor="start" x="723.33" y="-9.8" font-family="Helvetica,sans-Serif" font-size="14.00" fill="#666666">INTEGER</text>
<polygon fill="none" stroke="black" points="612.52,0 612.52,-117.2 792.56,-117.2 792.56,0 612.52,0"/>
</g>
<!-- POSTE -->
<g id="node6" class="node">
<title>POSTE</title>
<polygon fill="white" stroke="none" points="1120.19,-75.6 1120.19,-221.6 1381.92,-221.6 1381.92,-75.6 1120.19,-75.6"/>
<polygon fill="#2c3e50" stroke="none" points="1121.19,-191.8 1121.19,-220.6 1380.92,-220.6 1380.92,-191.8 1121.19,-191.8"/>
<text xml:space="preserve" text-anchor="start" x="1227.33" y="-203" font-family="Helvetica,sans-Serif" font-weight="bold" font-size="14.00" fill="white">POSTE</text>
<polygon fill="#fff7e0" stroke="none" points="1121.19,-163 1121.19,-191.8 1306.7,-191.8 1306.7,-163 1121.19,-163"/>
<text xml:space="preserve" text-anchor="start" x="1127.19" y="-174.2" font-family="Helvetica,sans-Serif" font-weight="bold" font-size="14.00">ID_Posta</text>
<text xml:space="preserve" text-anchor="start" x="1187.1" y="-174.2" font-family="Helvetica,sans-Serif" font-size="14.00"> </text>
<text xml:space="preserve" text-anchor="start" x="1190.99" y="-174.2" font-family="Helvetica,sans-Serif" font-weight="bold" font-size="14.00" fill="#b8860b">PK</text>
<polygon fill="#fff7e0" stroke="none" points="1306.7,-163 1306.7,-191.8 1380.92,-191.8 1380.92,-163 1306.7,-163"/>
<text xml:space="preserve" text-anchor="start" x="1312.7" y="-171.8" font-family="Helvetica,sans-Serif" font-size="14.00" fill="#666666">INTEGER</text>
<text xml:space="preserve" text-anchor="start" x="1127.19" y="-143" font-family="Helvetica,sans-Serif" font-size="14.00">Postanski_broj</text>
<text xml:space="preserve" text-anchor="start" x="1312.7" y="-143" font-family="Helvetica,sans-Serif" font-size="14.00" fill="#666666">INTEGER</text>
<text xml:space="preserve" text-anchor="start" x="1127.19" y="-114.2" font-family="Helvetica,sans-Serif" font-size="14.00">Mjesto</text>
<text xml:space="preserve" text-anchor="start" x="1312.7" y="-114.2" font-family="Helvetica,sans-Serif" font-size="14.00" fill="#666666">TEXT</text>
<text xml:space="preserve" text-anchor="start" x="1127.19" y="-87.8" font-family="Helvetica,sans-Serif" font-size="14.00">ZUPANIJE_ID_Zupanija </text>
<text xml:space="preserve" text-anchor="start" x="1282.04" y="-87.8" font-family="Helvetica,sans-Serif" font-weight="bold" font-size="14.00" fill="#4169e1">FK</text>
<text xml:space="preserve" text-anchor="start" x="1312.7" y="-85.4" font-family="Helvetica,sans-Serif" font-size="14.00" fill="#666666">INTEGER</text>
<polygon fill="none" stroke="black" points="1120.19,-75.6 1120.19,-221.6 1381.92,-221.6 1381.92,-75.6 1120.19,-75.6"/>
</g>
<!-- ZUPANIJE -->
<g id="node13" class="node">
<title>ZUPANIJE</title>
<polygon fill="white" stroke="none" points="1630.39,-47.4 1630.39,-135.8 1821.3,-135.8 1821.3,-47.4 1630.39,-47.4"/>
<polygon fill="#2c3e50" stroke="none" points="1631.39,-106 1631.39,-134.8 1820.3,-134.8 1820.3,-106 1631.39,-106"/>
<text xml:space="preserve" text-anchor="start" x="1691.23" y="-117.2" font-family="Helvetica,sans-Serif" font-weight="bold" font-size="14.00" fill="white">ZUPANIJE</text>
<polygon fill="#fff7e0" stroke="none" points="1631.39,-77.2 1631.39,-106 1746.08,-106 1746.08,-77.2 1631.39,-77.2"/>
<text xml:space="preserve" text-anchor="start" x="1637.39" y="-88.4" font-family="Helvetica,sans-Serif" font-weight="bold" font-size="14.00">ID_Zupanija</text>
<text xml:space="preserve" text-anchor="start" x="1716.74" y="-88.4" font-family="Helvetica,sans-Serif" font-size="14.00"> </text>
<text xml:space="preserve" text-anchor="start" x="1720.63" y="-88.4" font-family="Helvetica,sans-Serif" font-weight="bold" font-size="14.00" fill="#b8860b">PK</text>
<polygon fill="#fff7e0" stroke="none" points="1746.08,-77.2 1746.08,-106 1820.3,-106 1820.3,-77.2 1746.08,-77.2"/>
<text xml:space="preserve" text-anchor="start" x="1752.08" y="-86" font-family="Helvetica,sans-Serif" font-size="14.00" fill="#666666">INTEGER</text>
<text xml:space="preserve" text-anchor="start" x="1637.39" y="-57.2" font-family="Helvetica,sans-Serif" font-size="14.00">Naziv</text>
<text xml:space="preserve" text-anchor="start" x="1752.08" y="-57.2" font-family="Helvetica,sans-Serif" font-size="14.00" fill="#666666">TEXT</text>
<polygon fill="none" stroke="black" points="1630.39,-47.4 1630.39,-135.8 1821.3,-135.8 1821.3,-47.4 1630.39,-47.4"/>
</g>
<!-- POSTE&#45;&gt;ZUPANIJE -->
<g id="edge8" class="edge">
<title>POSTE:ZUPANIJE_ID_Zupanija&#45;&gt;ZUPANIJE:ID_Zupanija</title>
<path fill="none" stroke="#555555" d="M1213.95,-75.6C1213.95,-0.94 1307.31,-74.13 1381.92,-76.6 1489.69,-80.17 1518.32,-91.03 1622.13,-91.58"/>
<polygon fill="#555555" stroke="#555555" points="1621.87,-94.03 1628.88,-91.6 1621.89,-89.13 1621.87,-94.03"/>
<text xml:space="preserve" text-anchor="middle" x="1506.16" y="-94.14" font-family="Helvetica,sans-Serif" font-size="10.00">ZUPANIJE_ID_Zupanija &#45;&gt; ID_Zupanija</text>
</g>
<!-- P_UCENIK -->
<g id="node8" class="node">
<title>P_UCENIK</title>
<polygon fill="white" stroke="none" points="24.28,-410.4 24.28,-498.8 293.78,-498.8 293.78,-410.4 24.28,-410.4"/>
<polygon fill="#2c3e50" stroke="none" points="25.28,-469 25.28,-497.8 292.78,-497.8 292.78,-469 25.28,-469"/>
<text xml:space="preserve" text-anchor="start" x="123.64" y="-480.2" font-family="Helvetica,sans-Serif" font-weight="bold" font-size="14.00" fill="white">P_UCENIK</text>
<polygon fill="#fff7e0" stroke="none" points="25.28,-440.2 25.28,-469 218.55,-469 218.55,-440.2 25.28,-440.2"/>
<text xml:space="preserve" text-anchor="start" x="31.28" y="-451.4" font-family="Helvetica,sans-Serif" font-weight="bold" font-size="14.00">UCENICI_ID_Ucenik</text>
<text xml:space="preserve" text-anchor="start" x="164.33" y="-451.4" font-family="Helvetica,sans-Serif" font-size="14.00"> </text>
<text xml:space="preserve" text-anchor="start" x="168.22" y="-451.4" font-family="Helvetica,sans-Serif" font-weight="bold" font-size="14.00" fill="#b8860b">PK</text>
<polygon fill="#fff7e0" stroke="none" points="218.55,-440.2 218.55,-469 292.78,-469 292.78,-440.2 218.55,-440.2"/>
<text xml:space="preserve" text-anchor="start" x="224.55" y="-449" font-family="Helvetica,sans-Serif" font-size="14.00" fill="#666666">INTEGER</text>
<polygon fill="#fff7e0" stroke="none" points="25.28,-411.4 25.28,-440.2 218.55,-440.2 218.55,-411.4 25.28,-411.4"/>
<text xml:space="preserve" text-anchor="start" x="31.28" y="-422.6" font-family="Helvetica,sans-Serif" font-weight="bold" font-size="14.00">PREDMETI_ID_Predmet</text>
<text xml:space="preserve" text-anchor="start" x="189.22" y="-422.6" font-family="Helvetica,sans-Serif" font-size="14.00"> </text>
<text xml:space="preserve" text-anchor="start" x="193.11" y="-422.6" font-family="Helvetica,sans-Serif" font-weight="bold" font-size="14.00" fill="#b8860b">PK</text>
<polygon fill="#fff7e0" stroke="none" points="218.55,-411.4 218.55,-440.2 292.78,-440.2 292.78,-411.4 218.55,-411.4"/>
<text xml:space="preserve" text-anchor="start" x="224.55" y="-420.2" font-family="Helvetica,sans-Serif" font-size="14.00" fill="#666666">INTEGER</text>
<polygon fill="none" stroke="black" points="24.28,-410.4 24.28,-498.8 293.78,-498.8 293.78,-410.4 24.28,-410.4"/>
</g>
<!-- P_UCENIK&#45;&gt;PREDMETI -->
<g id="edge9" class="edge">
<title>P_UCENIK:PREDMETI_ID_Predmet&#45;&gt;PREDMETI:ID_Predmet</title>
<path fill="none" stroke="#555555" d="M121.92,-410.4C121.92,-334.02 219.85,-392.19 293.78,-411.4 317.18,-417.48 319.98,-426.49 341.45,-437.6 397.51,-466.6 530.52,-558.98 599.38,-566.51"/>
<polygon fill="#555555" stroke="#555555" points="599.21,-568.96 606.34,-566.91 599.5,-564.06 599.21,-568.96"/>
<text xml:space="preserve" text-anchor="middle" x="430.79" y="-540.76" font-family="Helvetica,sans-Serif" font-size="10.00">PREDMETI_ID_Predmet &#45;&gt; ID_Predmet</text>
</g>
<!-- UCENICI -->
<g id="node11" class="node">
<title>UCENICI</title>
<polygon fill="white" stroke="none" points="579.08,-160.6 579.08,-450.6 826.01,-450.6 826.01,-160.6 579.08,-160.6"/>
<polygon fill="#2c3e50" stroke="none" points="580.08,-420.8 580.08,-449.6 825.01,-449.6 825.01,-420.8 580.08,-420.8"/>
<text xml:space="preserve" text-anchor="start" x="673.76" y="-432" font-family="Helvetica,sans-Serif" font-weight="bold" font-size="14.00" fill="white">UCENICI</text>
<polygon fill="#fff7e0" stroke="none" points="580.08,-392 580.08,-420.8 750.78,-420.8 750.78,-392 580.08,-392"/>
<text xml:space="preserve" text-anchor="start" x="586.08" y="-403.2" font-family="Helvetica,sans-Serif" font-weight="bold" font-size="14.00">ID_Ucenik</text>
<text xml:space="preserve" text-anchor="start" x="653.77" y="-403.2" font-family="Helvetica,sans-Serif" font-size="14.00"> </text>
<text xml:space="preserve" text-anchor="start" x="657.66" y="-403.2" font-family="Helvetica,sans-Serif" font-weight="bold" font-size="14.00" fill="#b8860b">PK</text>
<polygon fill="#fff7e0" stroke="none" points="750.78,-392 750.78,-420.8 825.01,-420.8 825.01,-392 750.78,-392"/>
<text xml:space="preserve" text-anchor="start" x="756.78" y="-400.8" font-family="Helvetica,sans-Serif" font-size="14.00" fill="#666666">INTEGER</text>
<text xml:space="preserve" text-anchor="start" x="586.08" y="-372" font-family="Helvetica,sans-Serif" font-size="14.00">Ime</text>
<text xml:space="preserve" text-anchor="start" x="756.78" y="-372" font-family="Helvetica,sans-Serif" font-size="14.00" fill="#666666">TEXT</text>
<text xml:space="preserve" text-anchor="start" x="586.08" y="-343.2" font-family="Helvetica,sans-Serif" font-size="14.00">Prezime</text>
<text xml:space="preserve" text-anchor="start" x="756.78" y="-343.2" font-family="Helvetica,sans-Serif" font-size="14.00" fill="#666666">TEXT</text>
<text xml:space="preserve" text-anchor="start" x="586.08" y="-314.4" font-family="Helvetica,sans-Serif" font-size="14.00">Datum_rodjenja</text>
<text xml:space="preserve" text-anchor="start" x="756.78" y="-314.4" font-family="Helvetica,sans-Serif" font-size="14.00" fill="#666666">TEXT</text>
<text xml:space="preserve" text-anchor="start" x="586.08" y="-285.6" font-family="Helvetica,sans-Serif" font-size="14.00">OIB</text>
<text xml:space="preserve" text-anchor="start" x="756.78" y="-285.6" font-family="Helvetica,sans-Serif" font-size="14.00" fill="#666666">TEXT</text>
<text xml:space="preserve" text-anchor="start" x="586.08" y="-256.8" font-family="Helvetica,sans-Serif" font-size="14.00">Ime_oca</text>
<text xml:space="preserve" text-anchor="start" x="756.78" y="-256.8" font-family="Helvetica,sans-Serif" font-size="14.00" fill="#666666">TEXT</text>
<text xml:space="preserve" text-anchor="start" x="586.08" y="-228" font-family="Helvetica,sans-Serif" font-size="14.00">Adresa</text>
<text xml:space="preserve" text-anchor="start" x="756.78" y="-228" font-family="Helvetica,sans-Serif" font-size="14.00" fill="#666666">TEXT</text>
<text xml:space="preserve" text-anchor="start" x="586.08" y="-201.6" font-family="Helvetica,sans-Serif" font-size="14.00">RAZREDI_ID_Razred </text>
<text xml:space="preserve" text-anchor="start" x="726.12" y="-201.6" font-family="Helvetica,sans-Serif" font-weight="bold" font-size="14.00" fill="#4169e1">FK</text>
<text xml:space="preserve" text-anchor="start" x="756.78" y="-199.2" font-family="Helvetica,sans-Serif" font-size="14.00" fill="#666666">INTEGER</text>
<text xml:space="preserve" text-anchor="start" x="586.08" y="-172.8" font-family="Helvetica,sans-Serif" font-size="14.00">POSTE_ID_Posta </text>
<text xml:space="preserve" text-anchor="start" x="702.79" y="-172.8" font-family="Helvetica,sans-Serif" font-weight="bold" font-size="14.00" fill="#4169e1">FK</text>
<text xml:space="preserve" text-anchor="start" x="756.78" y="-170.4" font-family="Helvetica,sans-Serif" font-size="14.00" fill="#666666">INTEGER</text>
<polygon fill="none" stroke="black" points="579.08,-160.6 579.08,-450.6 826.01,-450.6 826.01,-160.6 579.08,-160.6"/>
</g>
<!-- P_UCENIK&#45;&gt;UCENICI -->
<g id="edge10" class="edge">
<title>P_UCENIK:UCENICI_ID_Ucenik&#45;&gt;UCENICI:ID_Ucenik</title>
<path fill="none" stroke="#555555" d="M24.28,-454.6C4.64,-454.6 11.23,-485.06 25.28,-498.8 110.61,-582.22 190.53,-558.64 293.78,-498.8 330.65,-477.43 305,-437.68 341.45,-415.6 429.47,-362.29 471.16,-404.07 570.85,-406.31"/>
<polygon fill="#555555" stroke="#555555" points="570.53,-408.75 577.56,-406.38 570.59,-403.85 570.53,-408.75"/>
<text xml:space="preserve" text-anchor="middle" x="430.79" y="-418.6" font-family="Helvetica,sans-Serif" font-size="10.00">UCENICI_ID_Ucenik &#45;&gt; ID_Ucenik</text>
</g>
<!-- RAZREDI&#45;&gt;SKOLE -->
<g id="edge11" class="edge">
<title>RAZREDI:SKOLE_ID_Skola&#45;&gt;SKOLE:ID_Skola</title>
<path fill="none" stroke="#555555" d="M1213.95,-500.6C1213.95,-434.76 1297.89,-486.98 1362.09,-501.6 1492.77,-531.35 1503.28,-628.89 1632.24,-632.87"/>
<polygon fill="#555555" stroke="#555555" points="1631.95,-635.32 1638.98,-632.98 1632.02,-630.42 1631.95,-635.32"/>
<text xml:space="preserve" text-anchor="middle" x="1506.16" y="-631.02" font-family="Helvetica,sans-Serif" font-size="10.00">SKOLE_ID_Skola &#45;&gt; ID_Skola</text>
</g>
<!-- UCENICI&#45;&gt;POSTE -->
<g id="edge12" class="edge">
<title>UCENICI:POSTE_ID_Posta&#45;&gt;POSTE:ID_Posta</title>
<path fill="none" stroke="#555555" d="M665.43,-160.6C665.43,-124.92 790.34,-160.53 826.01,-161.6 954.07,-165.44 987.82,-176.89 1111.89,-177.38"/>
<polygon fill="#555555" stroke="#555555" points="1111.68,-179.83 1118.68,-177.4 1111.69,-174.93 1111.68,-179.83"/>
<text xml:space="preserve" text-anchor="middle" x="984.58" y="-180.06" font-family="Helvetica,sans-Serif" font-size="10.00">POSTE_ID_Posta &#45;&gt; ID_Posta</text>
</g>
<!-- UCENICI&#45;&gt;RAZREDI -->
<g id="edge13" class="edge">
<title>UCENICI:RAZREDI_ID_Razred&#45;&gt;RAZREDI:ID_Razred</title>
<path fill="none" stroke="#555555" d="M579.08,-204.8C559.43,-204.8 566.02,-174.34 580.08,-160.6 599.61,-141.5 801.72,-148.07 826.01,-160.6 877.33,-187.09 1063.62,-569.07 1131.93,-600.36"/>
<polygon fill="#555555" stroke="#555555" points="1131.17,-602.7 1138.56,-602.03 1132.37,-597.95 1131.17,-602.7"/>
<text xml:space="preserve" text-anchor="middle" x="984.58" y="-550.05" font-family="Helvetica,sans-Serif" font-size="10.00">RAZREDI_ID_Razred &#45;&gt; ID_Razred</text>
</g>
<!-- ZAVRSNA_O -->
<g id="node12" class="node">
<title>ZAVRSNA_O</title>
<polygon fill="white" stroke="none" points="36.33,-192.4 36.33,-280.8 281.73,-280.8 281.73,-192.4 36.33,-192.4"/>
<polygon fill="#2c3e50" stroke="none" points="37.33,-251 37.33,-279.8 280.73,-279.8 280.73,-251 37.33,-251"/>
<text xml:space="preserve" text-anchor="start" x="115.86" y="-262.2" font-family="Helvetica,sans-Serif" font-weight="bold" font-size="14.00" fill="white">ZAVRSNA_O</text>
<polygon fill="#fff7e0" stroke="none" points="37.33,-222.2 37.33,-251 206.51,-251 206.51,-222.2 37.33,-222.2"/>
<text xml:space="preserve" text-anchor="start" x="43.33" y="-233.4" font-family="Helvetica,sans-Serif" font-weight="bold" font-size="14.00">UCENICI_ID_Ucenik</text>
<text xml:space="preserve" text-anchor="start" x="176.37" y="-233.4" font-family="Helvetica,sans-Serif" font-size="14.00"> </text>
<text xml:space="preserve" text-anchor="start" x="180.26" y="-233.4" font-family="Helvetica,sans-Serif" font-weight="bold" font-size="14.00" fill="#b8860b">PK</text>
<polygon fill="#fff7e0" stroke="none" points="206.51,-222.2 206.51,-251 280.73,-251 280.73,-222.2 206.51,-222.2"/>
<text xml:space="preserve" text-anchor="start" x="212.51" y="-231" font-family="Helvetica,sans-Serif" font-size="14.00" fill="#666666">INTEGER</text>
<polygon fill="#fff7e0" stroke="none" points="37.33,-193.4 37.33,-222.2 206.51,-222.2 206.51,-193.4 37.33,-193.4"/>
<text xml:space="preserve" text-anchor="start" x="43.33" y="-204.6" font-family="Helvetica,sans-Serif" font-weight="bold" font-size="14.00">OCJENE_ID_Ocjena</text>
<text xml:space="preserve" text-anchor="start" x="177.17" y="-204.6" font-family="Helvetica,sans-Serif" font-size="14.00"> </text>
<text xml:space="preserve" text-anchor="start" x="181.06" y="-204.6" font-family="Helvetica,sans-Serif" font-weight="bold" font-size="14.00" fill="#b8860b">PK</text>
<polygon fill="#fff7e0" stroke="none" points="206.51,-193.4 206.51,-222.2 280.73,-222.2 280.73,-193.4 206.51,-193.4"/>
<text xml:space="preserve" text-anchor="start" x="212.51" y="-202.2" font-family="Helvetica,sans-Serif" font-size="14.00" fill="#666666">INTEGER</text>
<polygon fill="none" stroke="black" points="36.33,-192.4 36.33,-280.8 281.73,-280.8 281.73,-192.4 36.33,-192.4"/>
</g>
<!-- ZAVRSNA_O&#45;&gt;OCJENE -->
<g id="edge14" class="edge">
<title>ZAVRSNA_O:OCJENE_ID_Ocjena&#45;&gt;OCJENE:ID_Ocjena</title>
<path fill="none" stroke="#555555" d="M121.92,-192.4C121.92,29.27 381.65,-70.49 604.28,-72.95"/>
<polygon fill="#555555" stroke="#555555" points="603.99,-75.4 611.01,-72.99 604.02,-70.5 603.99,-75.4"/>
<text xml:space="preserve" text-anchor="middle" x="430.79" y="-70.38" font-family="Helvetica,sans-Serif" font-size="10.00">OCJENE_ID_Ocjena &#45;&gt; ID_Ocjena</text>
</g>
<!-- ZAVRSNA_O&#45;&gt;UCENICI -->
<g id="edge15" class="edge">
<title>ZAVRSNA_O:UCENICI_ID_Ucenik&#45;&gt;UCENICI:ID_Ucenik</title>
<path fill="none" stroke="#555555" d="M36.33,-236.6C16.68,-236.6 24.3,-266.09 37.33,-280.8 181.09,-443.09 324.97,-256.15 520.12,-350.6 549.8,-364.97 544.34,-399.69 570.73,-405.55"/>
<polygon fill="#555555" stroke="#555555" points="570.36,-407.98 577.57,-406.25 570.85,-403.1 570.36,-407.98"/>
<text xml:space="preserve" text-anchor="middle" x="430.79" y="-353.6" font-family="Helvetica,sans-Serif" font-size="10.00">UCENICI_ID_Ucenik &#45;&gt; ID_Ucenik</text>
</g>
</g>
</svg>
