<?xml version="1.0" encoding="UTF-8" standalone="no"?>
<!DOCTYPE svg PUBLIC "-//W3C//DTD SVG 1.1//EN"
 "http://www.w3.org/Graphics/SVG/1.1/DTD/svg11.dtd">
<!-- Generated by graphviz version 15.0.0 (20260523.1842)
 -->
<!-- Title: schema Pages: 1 -->
<svg width="1765pt" height="1068pt"
 viewBox="0.00 0.00 1765.00 1068.00" xmlns="http://www.w3.org/2000/svg" xmlns:xlink="http://www.w3.org/1999/xlink">
<g id="graph0" class="graph" transform="scale(1 1) rotate(0) translate(4 1064.2)">
<title>schema</title>
<polygon fill="white" stroke="none" points="-4,4 -4,-1064.2 1760.5,-1064.2 1760.5,4 -4,4"/>
<!-- NASTAVNICI -->
<g id="node1" class="node">
<title>NASTAVNICI</title>
<polygon fill="white" stroke="none" points="582.13,-752.4 582.13,-984.8 818.18,-984.8 818.18,-752.4 582.13,-752.4"/>
<polygon fill="#2c3e50" stroke="none" points="583.13,-955 583.13,-983.8 817.18,-983.8 817.18,-955 583.13,-955"/>
<text xml:space="preserve" text-anchor="start" x="657.37" y="-966.2" font-family="Helvetica,sans-Serif" font-weight="bold" font-size="14.00" fill="white">NASTAVNICI</text>
<polygon fill="#fff7e0" stroke="none" points="583.13,-926.2 583.13,-955 742.95,-955 742.95,-926.2 583.13,-926.2"/>
<text xml:space="preserve" text-anchor="start" x="589.13" y="-937.4" font-family="Helvetica,sans-Serif" font-weight="bold" font-size="14.00">ID_Nastavnik</text>
<text xml:space="preserve" text-anchor="start" x="677.06" y="-937.4" font-family="Helvetica,sans-Serif" font-size="14.00"> </text>
<text xml:space="preserve" text-anchor="start" x="680.95" y="-937.4" font-family="Helvetica,sans-Serif" font-weight="bold" font-size="14.00" fill="#b8860b">PK</text>
<polygon fill="#fff7e0" stroke="none" points="742.95,-926.2 742.95,-955 817.18,-955 817.18,-926.2 742.95,-926.2"/>
<text xml:space="preserve" text-anchor="start" x="748.95" y="-935" font-family="Helvetica,sans-Serif" font-size="14.00" fill="#666666">INTEGER</text>
<text xml:space="preserve" text-anchor="start" x="589.13" y="-906.2" font-family="Helvetica,sans-Serif" font-size="14.00">Ime</text>
<text xml:space="preserve" text-anchor="start" x="748.95" y="-906.2" font-family="Helvetica,sans-Serif" font-size="14.00" fill="#666666">TEXT</text>
<text xml:space="preserve" text-anchor="start" x="589.13" y="-877.4" font-family="Helvetica,sans-Serif" font-size="14.00">Prezime</text>
<text xml:space="preserve" text-anchor="start" x="748.95" y="-877.4" font-family="Helvetica,sans-Serif" font-size="14.00" fill="#666666">TEXT</text>
<text xml:space="preserve" text-anchor="start" x="589.13" y="-848.6" font-family="Helvetica,sans-Serif" font-size="14.00">Datum_rodjenja</text>
<text xml:space="preserve" text-anchor="start" x="748.95" y="-848.6" font-family="Helvetica,sans-Serif" font-size="14.00" fill="#666666">TEXT</text>
<text xml:space="preserve" text-anchor="start" x="589.13" y="-819.8" font-family="Helvetica,sans-Serif" font-size="14.00">Pocetak_rada</text>
<text xml:space="preserve" text-anchor="start" x="748.95" y="-819.8" font-family="Helvetica,sans-Serif" font-size="14.00" fill="#666666">TEXT</text>
<text xml:space="preserve" text-anchor="start" x="589.13" y="-791" font-family="Helvetica,sans-Serif" font-size="14.00">Kraj_rada</text>
<text xml:space="preserve" text-anchor="start" x="748.95" y="-791" font-family="Helvetica,sans-Serif" font-size="14.00" fill="#666666">TEXT</text>
<text xml:space="preserve" text-anchor="start" x="589.13" y="-764.6" font-family="Helvetica,sans-Serif" font-size="14.00">ZVANJA_ID_Zvanje </text>
<text xml:space="preserve" text-anchor="start" x="718.29" y="-764.6" font-family="Helvetica,sans-Serif" font-weight="bold" font-size="14.00" fill="#4169e1">FK</text>
<text xml:space="preserve" text-anchor="start" x="748.95" y="-762.2" font-family="Helvetica,sans-Serif" font-size="14.00" fill="#666666">INTEGER</text>
<polygon fill="none" stroke="black" points="582.13,-752.4 582.13,-984.8 818.18,-984.8 818.18,-752.4 582.13,-752.4"/>
</g>
<!-- ZVANJA -->
<g id="node14" class="node">
<title>ZVANJA</title>
<polygon fill="white" stroke="none" points="1097.41,-724.4 1097.41,-812.8 1275.11,-812.8 1275.11,-724.4 1097.41,-724.4"/>
<polygon fill="#2c3e50" stroke="none" points="1098.41,-783 1098.41,-811.8 1274.11,-811.8 1274.11,-783 1098.41,-783"/>
<text xml:space="preserve" text-anchor="start" x="1158.25" y="-794.2" font-family="Helvetica,sans-Serif" font-weight="bold" font-size="14.00" fill="white">ZVANJA</text>
<polygon fill="#fff7e0" stroke="none" points="1098.41,-754.2 1098.41,-783 1199.88,-783 1199.88,-754.2 1098.41,-754.2"/>
<text xml:space="preserve" text-anchor="start" x="1104.41" y="-765.4" font-family="Helvetica,sans-Serif" font-weight="bold" font-size="14.00">ID_Zvanje</text>
<text xml:space="preserve" text-anchor="start" x="1170.54" y="-765.4" font-family="Helvetica,sans-Serif" font-size="14.00"> </text>
<text xml:space="preserve" text-anchor="start" x="1174.43" y="-765.4" font-family="Helvetica,sans-Serif" font-weight="bold" font-size="14.00" fill="#b8860b">PK</text>
<polygon fill="#fff7e0" stroke="none" points="1199.88,-754.2 1199.88,-783 1274.11,-783 1274.11,-754.2 1199.88,-754.2"/>
<text xml:space="preserve" text-anchor="start" x="1205.88" y="-763" font-family="Helvetica,sans-Serif" font-size="14.00" fill="#666666">INTEGER</text>
<text xml:space="preserve" text-anchor="start" x="1104.41" y="-734.2" font-family="Helvetica,sans-Serif" font-size="14.00">Naziv</text>
<text xml:space="preserve" text-anchor="start" x="1205.88" y="-734.2" font-family="Helvetica,sans-Serif" font-size="14.00" fill="#666666">TEXT</text>
<polygon fill="none" stroke="black" points="1097.41,-724.4 1097.41,-812.8 1275.11,-812.8 1275.11,-724.4 1097.41,-724.4"/>
</g>
<!-- NASTAVNICI&#45;&gt;ZVANJA -->
<g id="edge1" class="edge">
<title>NASTAVNICI:ZVANJA_ID_Zvanje&#45;&gt;ZVANJA:ID_Zvanje</title>
<path fill="none" stroke="#555555" d="M663.04,-752.4C663.04,-683.45 749.26,-751.3 818.18,-753.4 939.61,-757.09 971.69,-768.09 1089.17,-768.58"/>
<polygon fill="#555555" stroke="#555555" points="1088.89,-771.03 1095.89,-768.6 1088.9,-766.13 1088.89,-771.03"/>
<text xml:space="preserve" text-anchor="middle" x="939.51" y="-769.76" font-family="Helvetica,sans-Serif" font-size="10.00">ZVANJA_ID_Zvanje &#45;&gt; ID_Zvanje</text>
</g>
<!-- NASTAVNIK_SKOLE -->
<g id="node2" class="node">
<title>NASTAVNIK_SKOLE</title>
<polygon fill="white" stroke="none" points="16.12,-943 16.12,-1060.2 301.95,-1060.2 301.95,-943 16.12,-943"/>
<polygon fill="#2c3e50" stroke="none" points="17.12,-1030.4 17.12,-1059.2 300.95,-1059.2 300.95,-1030.4 17.12,-1030.4"/>
<text xml:space="preserve" text-anchor="start" x="90.19" y="-1041.6" font-family="Helvetica,sans-Serif" font-weight="bold" font-size="14.00" fill="white">NASTAVNIK_SKOLE</text>
<polygon fill="#fff7e0" stroke="none" points="17.12,-1001.6 17.12,-1030.4 226.72,-1030.4 226.72,-1001.6 17.12,-1001.6"/>
<text xml:space="preserve" text-anchor="start" x="23.12" y="-1012.8" font-family="Helvetica,sans-Serif" font-weight="bold" font-size="14.00">ID</text>
<text xml:space="preserve" text-anchor="start" x="37.12" y="-1012.8" font-family="Helvetica,sans-Serif" font-size="14.00"> </text>
<text xml:space="preserve" text-anchor="start" x="41.01" y="-1012.8" font-family="Helvetica,sans-Serif" font-weight="bold" font-size="14.00" fill="#b8860b">PK</text>
<polygon fill="#fff7e0" stroke="none" points="226.72,-1001.6 226.72,-1030.4 300.95,-1030.4 300.95,-1001.6 226.72,-1001.6"/>
<text xml:space="preserve" text-anchor="start" x="232.72" y="-1010.4" font-family="Helvetica,sans-Serif" font-size="14.00" fill="#666666">INTEGER</text>
<text xml:space="preserve" text-anchor="start" x="23.12" y="-984" font-family="Helvetica,sans-Serif" font-size="14.00">NASTAVNICI_ID_Nastavnik </text>
<text xml:space="preserve" text-anchor="start" x="202.06" y="-984" font-family="Helvetica,sans-Serif" font-weight="bold" font-size="14.00" fill="#4169e1">FK</text>
<text xml:space="preserve" text-anchor="start" x="232.72" y="-981.6" font-family="Helvetica,sans-Serif" font-size="14.00" fill="#666666">INTEGER</text>
<text xml:space="preserve" text-anchor="start" x="23.12" y="-952.8" font-family="Helvetica,sans-Serif" font-size="14.00">Naziv_skole</text>
<text xml:space="preserve" text-anchor="start" x="232.72" y="-952.8" font-family="Helvetica,sans-Serif" font-size="14.00" fill="#666666">TEXT</text>
<polygon fill="none" stroke="black" points="16.12,-943 16.12,-1060.2 301.95,-1060.2 301.95,-943 16.12,-943"/>
</g>
<!-- NASTAVNIK_SKOLE&#45;&gt;NASTAVNICI -->
<g id="edge2" class="edge">
<title>NASTAVNIK_SKOLE:NASTAVNICI_ID_Nastavnik&#45;&gt;NASTAVNICI:ID_Nastavnik</title>
<path fill="none" stroke="#555555" d="M16.12,-987.2C-3.53,-987.2 3.09,-956.77 17.12,-943 60.3,-900.61 486.83,-937.71 573.82,-940.44"/>
<polygon fill="#555555" stroke="#555555" points="573.57,-942.89 580.61,-940.57 573.66,-937.99 573.57,-942.89"/>
<text xml:space="preserve" text-anchor="middle" x="441.07" y="-941.81" font-family="Helvetica,sans-Serif" font-size="10.00">NASTAVNICI_ID_Nastavnik &#45;&gt; ID_Nastavnik</text>
</g>
<!-- N_PREDMET -->
<g id="node3" class="node">
<title>N_PREDMET</title>
<polygon fill="white" stroke="none" points="12.61,-811.4 12.61,-899.8 305.45,-899.8 305.45,-811.4 12.61,-811.4"/>
<polygon fill="#2c3e50" stroke="none" points="13.61,-870 13.61,-898.8 304.45,-898.8 304.45,-870 13.61,-870"/>
<text xml:space="preserve" text-anchor="start" x="115.86" y="-881.2" font-family="Helvetica,sans-Serif" font-weight="bold" font-size="14.00" fill="white">N_PREDMET</text>
<polygon fill="#fff7e0" stroke="none" points="13.61,-841.2 13.61,-870 230.23,-870 230.23,-841.2 13.61,-841.2"/>
<text xml:space="preserve" text-anchor="start" x="19.61" y="-852.4" font-family="Helvetica,sans-Serif" font-weight="bold" font-size="14.00">PREDMETI_ID_Predmet</text>
<text xml:space="preserve" text-anchor="start" x="177.54" y="-852.4" font-family="Helvetica,sans-Serif" font-size="14.00"> </text>
<text xml:space="preserve" text-anchor="start" x="181.43" y="-852.4" font-family="Helvetica,sans-Serif" font-weight="bold" font-size="14.00" fill="#b8860b">PK</text>
<polygon fill="#fff7e0" stroke="none" points="230.23,-841.2 230.23,-870 304.45,-870 304.45,-841.2 230.23,-841.2"/>
<text xml:space="preserve" text-anchor="start" x="236.23" y="-850" font-family="Helvetica,sans-Serif" font-size="14.00" fill="#666666">INTEGER</text>
<polygon fill="#fff7e0" stroke="none" points="13.61,-812.4 13.61,-841.2 230.23,-841.2 230.23,-812.4 13.61,-812.4"/>
<text xml:space="preserve" text-anchor="start" x="19.61" y="-823.6" font-family="Helvetica,sans-Serif" font-weight="bold" font-size="14.00">NASTAVNICI_ID_Nastavnik</text>
<text xml:space="preserve" text-anchor="start" x="200.89" y="-823.6" font-family="Helvetica,sans-Serif" font-size="14.00"> </text>
<text xml:space="preserve" text-anchor="start" x="204.78" y="-823.6" font-family="Helvetica,sans-Serif" font-weight="bold" font-size="14.00" fill="#b8860b">PK</text>
<polygon fill="#fff7e0" stroke="none" points="230.23,-812.4 230.23,-841.2 304.45,-841.2 304.45,-812.4 230.23,-812.4"/>
<text xml:space="preserve" text-anchor="start" x="236.23" y="-821.2" font-family="Helvetica,sans-Serif" font-size="14.00" fill="#666666">INTEGER</text>
<polygon fill="none" stroke="black" points="12.61,-811.4 12.61,-899.8 305.45,-899.8 305.45,-811.4 12.61,-811.4"/>
</g>
<!-- N_PREDMET&#45;&gt;NASTAVNICI -->
<g id="edge3" class="edge">
<title>N_PREDMET:NASTAVNICI_ID_Nastavnik&#45;&gt;NASTAVNICI:ID_Nastavnik</title>
<path fill="none" stroke="#555555" d="M121.92,-811.4C121.92,-764.99 487.23,-785.76 540.69,-825.6 581.7,-856.16 534.07,-931.1 573.68,-939.78"/>
<polygon fill="#555555" stroke="#555555" points="573.42,-942.21 580.62,-940.45 573.89,-937.34 573.42,-942.21"/>
<text xml:space="preserve" text-anchor="middle" x="441.07" y="-828.6" font-family="Helvetica,sans-Serif" font-size="10.00">NASTAVNICI_ID_Nastavnik &#45;&gt; ID_Nastavnik</text>
</g>
<!-- PREDMETI -->
<g id="node7" class="node">
<title>PREDMETI</title>
<polygon fill="white" stroke="none" points="605.47,-494 605.47,-611.2 794.84,-611.2 794.84,-494 605.47,-494"/>
<polygon fill="#2c3e50" stroke="none" points="606.47,-581.4 606.47,-610.2 793.84,-610.2 793.84,-581.4 606.47,-581.4"/>
<text xml:space="preserve" text-anchor="start" x="663.98" y="-592.6" font-family="Helvetica,sans-Serif" font-weight="bold" font-size="14.00" fill="white">PREDMETI</text>
<polygon fill="#fff7e0" stroke="none" points="606.47,-552.6 606.47,-581.4 719.61,-581.4 719.61,-552.6 606.47,-552.6"/>
<text xml:space="preserve" text-anchor="start" x="612.47" y="-563.8" font-family="Helvetica,sans-Serif" font-weight="bold" font-size="14.00">ID_Predmet</text>
<text xml:space="preserve" text-anchor="start" x="690.27" y="-563.8" font-family="Helvetica,sans-Serif" font-size="14.00"> </text>
<text xml:space="preserve" text-anchor="start" x="694.16" y="-563.8" font-family="Helvetica,sans-Serif" font-weight="bold" font-size="14.00" fill="#b8860b">PK</text>
<polygon fill="#fff7e0" stroke="none" points="719.61,-552.6 719.61,-581.4 793.84,-581.4 793.84,-552.6 719.61,-552.6"/>
<text xml:space="preserve" text-anchor="start" x="725.61" y="-561.4" font-family="Helvetica,sans-Serif" font-size="14.00" fill="#666666">INTEGER</text>
<text xml:space="preserve" text-anchor="start" x="612.47" y="-532.6" font-family="Helvetica,sans-Serif" font-size="14.00">Naziv</text>
<text xml:space="preserve" text-anchor="start" x="725.61" y="-532.6" font-family="Helvetica,sans-Serif" font-size="14.00" fill="#666666">TEXT</text>
<text xml:space="preserve" text-anchor="start" x="612.47" y="-503.8" font-family="Helvetica,sans-Serif" font-size="14.00">Broj_sati_tjedno</text>
<text xml:space="preserve" text-anchor="start" x="725.61" y="-503.8" font-family="Helvetica,sans-Serif" font-size="14.00" fill="#666666">INTEGER</text>
<polygon fill="none" stroke="black" points="605.47,-494 605.47,-611.2 794.84,-611.2 794.84,-494 605.47,-494"/>
</g>
<!-- N_PREDMET&#45;&gt;PREDMETI -->
<g id="edge4" class="edge">
<title>N_PREDMET:PREDMETI_ID_Predmet&#45;&gt;PREDMETI:ID_Predmet</title>
<path fill="none" stroke="#555555" d="M12.61,-855.6C-7.04,-855.6 -0.44,-886.06 13.61,-899.8 59.99,-945.14 241.09,-907.77 305.45,-899.8 412.44,-886.54 466.97,-919.26 540.69,-840.6 624.13,-751.56 487.2,-575.5 597.12,-567.3"/>
<polygon fill="#555555" stroke="#555555" points="597.04,-569.75 603.95,-567.05 596.87,-564.85 597.04,-569.75"/>
<text xml:space="preserve" text-anchor="middle" x="441.07" y="-899.58" font-family="Helvetica,sans-Serif" font-size="10.00">PREDMETI_ID_Predmet &#45;&gt; ID_Predmet</text>
</g>
<!-- N_RAZRED -->
<g id="node4" class="node">
<title>N_RAZRED</title>
<polygon fill="white" stroke="none" points="12.61,-667.4 12.61,-755.8 305.45,-755.8 305.45,-667.4 12.61,-667.4"/>
<polygon fill="#2c3e50" stroke="none" points="13.61,-726 13.61,-754.8 304.45,-754.8 304.45,-726 13.61,-726"/>
<text xml:space="preserve" text-anchor="start" x="120.92" y="-737.2" font-family="Helvetica,sans-Serif" font-weight="bold" font-size="14.00" fill="white">N_RAZRED</text>
<polygon fill="#fff7e0" stroke="none" points="13.61,-697.2 13.61,-726 230.23,-726 230.23,-697.2 13.61,-697.2"/>
<text xml:space="preserve" text-anchor="start" x="19.61" y="-708.4" font-family="Helvetica,sans-Serif" font-weight="bold" font-size="14.00">RAZREDI_ID_Razred</text>
<text xml:space="preserve" text-anchor="start" x="158.09" y="-708.4" font-family="Helvetica,sans-Serif" font-size="14.00"> </text>
<text xml:space="preserve" text-anchor="start" x="161.98" y="-708.4" font-family="Helvetica,sans-Serif" font-weight="bold" font-size="14.00" fill="#b8860b">PK</text>
<polygon fill="#fff7e0" stroke="none" points="230.23,-697.2 230.23,-726 304.45,-726 304.45,-697.2 230.23,-697.2"/>
<text xml:space="preserve" text-anchor="start" x="236.23" y="-706" font-family="Helvetica,sans-Serif" font-size="14.00" fill="#666666">INTEGER</text>
<polygon fill="#fff7e0" stroke="none" points="13.61,-668.4 13.61,-697.2 230.23,-697.2 230.23,-668.4 13.61,-668.4"/>
<text xml:space="preserve" text-anchor="start" x="19.61" y="-679.6" font-family="Helvetica,sans-Serif" font-weight="bold" font-size="14.00">NASTAVNICI_ID_Nastavnik</text>
<text xml:space="preserve" text-anchor="start" x="200.89" y="-679.6" font-family="Helvetica,sans-Serif" font-size="14.00"> </text>
<text xml:space="preserve" text-anchor="start" x="204.78" y="-679.6" font-family="Helvetica,sans-Serif" font-weight="bold" font-size="14.00" fill="#b8860b">PK</text>
<polygon fill="#fff7e0" stroke="none" points="230.23,-668.4 230.23,-697.2 304.45,-697.2 304.45,-668.4 230.23,-668.4"/>
<text xml:space="preserve" text-anchor="start" x="236.23" y="-677.2" font-family="Helvetica,sans-Serif" font-size="14.00" fill="#666666">INTEGER</text>
<polygon fill="none" stroke="black" points="12.61,-667.4 12.61,-755.8 305.45,-755.8 305.45,-667.4 12.61,-667.4"/>
</g>
<!-- N_RAZRED&#45;&gt;NASTAVNICI -->
<g id="edge5" class="edge">
<title>N_RAZRED:NASTAVNICI_ID_Nastavnik&#45;&gt;NASTAVNICI:ID_Nastavnik</title>
<path fill="none" stroke="#555555" d="M121.92,-667.4C121.92,-585.83 233.34,-630.28 305.45,-668.4 330.37,-681.57 318.15,-704.76 341.45,-720.6 416.61,-771.69 476.2,-702.56 540.69,-766.6 595,-820.54 509.43,-931.93 573.98,-940.12"/>
<polygon fill="#555555" stroke="#555555" points="573.49,-942.55 580.62,-940.51 573.77,-937.66 573.49,-942.55"/>
<text xml:space="preserve" text-anchor="middle" x="441.07" y="-769.6" font-family="Helvetica,sans-Serif" font-size="10.00">NASTAVNICI_ID_Nastavnik &#45;&gt; ID_Nastavnik</text>
</g>
<!-- RAZREDI -->
<g id="node9" class="node">
<title>RAZREDI</title>
<polygon fill="white" stroke="none" points="1075.23,-399.6 1075.23,-545.6 1297.29,-545.6 1297.29,-399.6 1075.23,-399.6"/>
<polygon fill="#2c3e50" stroke="none" points="1076.23,-515.8 1076.23,-544.6 1296.29,-544.6 1296.29,-515.8 1076.23,-515.8"/>
<text xml:space="preserve" text-anchor="start" x="1155.15" y="-527" font-family="Helvetica,sans-Serif" font-weight="bold" font-size="14.00" fill="white">RAZREDI</text>
<polygon fill="#fff7e0" stroke="none" points="1076.23,-487 1076.23,-515.8 1222.06,-515.8 1222.06,-487 1076.23,-487"/>
<text xml:space="preserve" text-anchor="start" x="1082.23" y="-498.2" font-family="Helvetica,sans-Serif" font-weight="bold" font-size="14.00">ID_Razred</text>
<text xml:space="preserve" text-anchor="start" x="1150.7" y="-498.2" font-family="Helvetica,sans-Serif" font-size="14.00"> </text>
<text xml:space="preserve" text-anchor="start" x="1154.59" y="-498.2" font-family="Helvetica,sans-Serif" font-weight="bold" font-size="14.00" fill="#b8860b">PK</text>
<polygon fill="#fff7e0" stroke="none" points="1222.06,-487 1222.06,-515.8 1296.29,-515.8 1296.29,-487 1222.06,-487"/>
<text xml:space="preserve" text-anchor="start" x="1228.06" y="-495.8" font-family="Helvetica,sans-Serif" font-size="14.00" fill="#666666">INTEGER</text>
<text xml:space="preserve" text-anchor="start" x="1082.23" y="-467" font-family="Helvetica,sans-Serif" font-size="14.00">Broj_razreda</text>
<text xml:space="preserve" text-anchor="start" x="1228.06" y="-467" font-family="Helvetica,sans-Serif" font-size="14.00" fill="#666666">INTEGER</text>
<text xml:space="preserve" text-anchor="start" x="1082.23" y="-438.2" font-family="Helvetica,sans-Serif" font-size="14.00">Slovo_razreda</text>
<text xml:space="preserve" text-anchor="start" x="1228.06" y="-438.2" font-family="Helvetica,sans-Serif" font-size="14.00" fill="#666666">TEXT</text>
<text xml:space="preserve" text-anchor="start" x="1082.23" y="-411.8" font-family="Helvetica,sans-Serif" font-size="14.00">SKOLE_ID_Skola </text>
<text xml:space="preserve" text-anchor="start" x="1197.4" y="-411.8" font-family="Helvetica,sans-Serif" font-weight="bold" font-size="14.00" fill="#4169e1">FK</text>
<text xml:space="preserve" text-anchor="start" x="1228.06" y="-409.4" font-family="Helvetica,sans-Serif" font-size="14.00" fill="#666666">INTEGER</text>
<polygon fill="none" stroke="black" points="1075.23,-399.6 1075.23,-545.6 1297.29,-545.6 1297.29,-399.6 1075.23,-399.6"/>
</g>
<!-- N_RAZRED&#45;&gt;RAZREDI -->
<g id="edge6" class="edge">
<title>N_RAZRED:RAZREDI_ID_Razred&#45;&gt;RAZREDI:ID_Razred</title>
<path fill="none" stroke="#555555" d="M12.61,-711.6C-7.04,-711.6 -0.44,-742.06 13.61,-755.8 59.99,-801.14 244.87,-778.94 305.45,-755.8 325.51,-748.14 322.2,-733.09 341.45,-723.6 537.04,-627.15 617.56,-704.01 823.62,-632.6 940.1,-592.23 948.77,-505.41 1066.91,-501.53"/>
<polygon fill="#555555" stroke="#555555" points="1066.75,-503.99 1073.71,-501.42 1066.68,-499.09 1066.75,-503.99"/>
<text xml:space="preserve" text-anchor="middle" x="700.15" y="-671.71" font-family="Helvetica,sans-Serif" font-size="10.00">RAZREDI_ID_Razred &#45;&gt; ID_Razred</text>
</g>
<!-- OCJENE -->
<g id="node5" class="node">
<title>OCJENE</title>
<polygon fill="white" stroke="none" points="610.13,0 610.13,-117.2 790.17,-117.2 790.17,0 610.13,0"/>
<polygon fill="#2c3e50" stroke="none" points="611.13,-87.4 611.13,-116.2 789.17,-116.2 789.17,-87.4 611.13,-87.4"/>
<text xml:space="preserve" text-anchor="start" x="671.37" y="-98.6" font-family="Helvetica,sans-Serif" font-weight="bold" font-size="14.00" fill="white">OCJENE</text>
<polygon fill="#fff7e0" stroke="none" points="611.13,-58.6 611.13,-87.4 714.94,-87.4 714.94,-58.6 611.13,-58.6"/>
<text xml:space="preserve" text-anchor="start" x="617.13" y="-69.8" font-family="Helvetica,sans-Serif" font-weight="bold" font-size="14.00">ID_Ocjena</text>
<text xml:space="preserve" text-anchor="start" x="685.61" y="-69.8" font-family="Helvetica,sans-Serif" font-size="14.00"> </text>
<text xml:space="preserve" text-anchor="start" x="689.5" y="-69.8" font-family="Helvetica,sans-Serif" font-weight="bold" font-size="14.00" fill="#b8860b">PK</text>
<polygon fill="#fff7e0" stroke="none" points="714.94,-58.6 714.94,-87.4 789.17,-87.4 789.17,-58.6 714.94,-58.6"/>
<text xml:space="preserve" text-anchor="start" x="720.94" y="-67.4" font-family="Helvetica,sans-Serif" font-size="14.00" fill="#666666">INTEGER</text>
<text xml:space="preserve" text-anchor="start" x="617.13" y="-38.6" font-family="Helvetica,sans-Serif" font-size="14.00">Ocjena</text>
<text xml:space="preserve" text-anchor="start" x="720.94" y="-38.6" font-family="Helvetica,sans-Serif" font-size="14.00" fill="#666666">TEXT</text>
<text xml:space="preserve" text-anchor="start" x="617.13" y="-9.8" font-family="Helvetica,sans-Serif" font-size="14.00">Broj_ocjene</text>
<text xml:space="preserve" text-anchor="start" x="720.94" y="-9.8" font-family="Helvetica,sans-Serif" font-size="14.00" fill="#666666">INTEGER</text>
<polygon fill="none" stroke="black" points="610.13,0 610.13,-117.2 790.17,-117.2 790.17,0 610.13,0"/>
</g>
<!-- POSTE -->
<g id="node6" class="node">
<title>POSTE</title>
<polygon fill="white" stroke="none" points="1055.39,-75.6 1055.39,-221.6 1317.12,-221.6 1317.12,-75.6 1055.39,-75.6"/>
<polygon fill="#2c3e50" stroke="none" points="1056.39,-191.8 1056.39,-220.6 1316.12,-220.6 1316.12,-191.8 1056.39,-191.8"/>
<text xml:space="preserve" text-anchor="start" x="1162.53" y="-203" font-family="Helvetica,sans-Serif" font-weight="bold" font-size="14.00" fill="white">POSTE</text>
<polygon fill="#fff7e0" stroke="none" points="1056.39,-163 1056.39,-191.8 1241.9,-191.8 1241.9,-163 1056.39,-163"/>
<text xml:space="preserve" text-anchor="start" x="1062.39" y="-174.2" font-family="Helvetica,sans-Serif" font-weight="bold" font-size="14.00">ID_Posta</text>
<text xml:space="preserve" text-anchor="start" x="1122.3" y="-174.2" font-family="Helvetica,sans-Serif" font-size="14.00"> </text>
<text xml:space="preserve" text-anchor="start" x="1126.19" y="-174.2" font-family="Helvetica,sans-Serif" font-weight="bold" font-size="14.00" fill="#b8860b">PK</text>
<polygon fill="#fff7e0" stroke="none" points="1241.9,-163 1241.9,-191.8 1316.12,-191.8 1316.12,-163 1241.9,-163"/>
<text xml:space="preserve" text-anchor="start" x="1247.9" y="-171.8" font-family="Helvetica,sans-Serif" font-size="14.00" fill="#666666">INTEGER</text>
<text xml:space="preserve" text-anchor="start" x="1062.39" y="-143" font-family="Helvetica,sans-Serif" font-size="14.00">Postanski_broj</text>
<text xml:space="preserve" text-anchor="start" x="1247.9" y="-143" font-family="Helvetica,sans-Serif" font-size="14.00" fill="#666666">INTEGER</text>
<text xml:space="preserve" text-anchor="start" x="1062.39" y="-114.2" font-family="Helvetica,sans-Serif" font-size="14.00">Mjesto</text>
<text xml:space="preserve" text-anchor="start" x="1247.9" y="-114.2" font-family="Helvetica,sans-Serif" font-size="14.00" fill="#666666">TEXT</text>
<text xml:space="preserve" text-anchor="start" x="1062.39" y="-87.8" font-family="Helvetica,sans-Serif" font-size="14.00">ZUPANIJE_ID_Zupanija </text>
<text xml:space="preserve" text-anchor="start" x="1217.23" y="-87.8" font-family="Helvetica,sans-Serif" font-weight="bold" font-size="14.00" fill="#4169e1">FK</text>
<text xml:space="preserve" text-anchor="start" x="1247.9" y="-85.4" font-family="Helvetica,sans-Serif" font-size="14.00" fill="#666666">INTEGER</text>
<polygon fill="none" stroke="black" points="1055.39,-75.6 1055.39,-221.6 1317.12,-221.6 1317.12,-75.6 1055.39,-75.6"/>
</g>
<!-- ZUPANIJE -->
<g id="node13" class="node">
<title>ZUPANIJE</title>
<polygon fill="white" stroke="none" points="1565.59,-47.4 1565.59,-135.8 1756.5,-135.8 1756.5,-47.4 1565.59,-47.4"/>
<polygon fill="#2c3e50" stroke="none" points="1566.59,-106 1566.59,-134.8 1755.5,-134.8 1755.5,-106 1566.59,-106"/>
<text xml:space="preserve" text-anchor="start" x="1626.43" y="-117.2" font-family="Helvetica,sans-Serif" font-weight="bold" font-size="14.00" fill="white">ZUPANIJE</text>
<polygon fill="#fff7e0" stroke="none" points="1566.59,-77.2 1566.59,-106 1681.28,-106 1681.28,-77.2 1566.59,-77.2"/>
<text xml:space="preserve" text-anchor="start" x="1572.59" y="-88.4" font-family="Helvetica,sans-Serif" font-weight="bold" font-size="14.00">ID_Zupanija</text>
<text xml:space="preserve" text-anchor="start" x="1651.94" y="-88.4" font-family="Helvetica,sans-Serif" font-size="14.00"> </text>
<text xml:space="preserve" text-anchor="start" x="1655.83" y="-88.4" font-family="Helvetica,sans-Serif" font-weight="bold" font-size="14.00" fill="#b8860b">PK</text>
<polygon fill="#fff7e0" stroke="none" points="1681.28,-77.2 1681.28,-106 1755.5,-106 1755.5,-77.2 1681.28,-77.2"/>
<text xml:space="preserve" text-anchor="start" x="1687.28" y="-86" font-family="Helvetica,sans-Serif" font-size="14.00" fill="#666666">INTEGER</text>
<text xml:space="preserve" text-anchor="start" x="1572.59" y="-57.2" font-family="Helvetica,sans-Serif" font-size="14.00">Naziv</text>
<text xml:space="preserve" text-anchor="start" x="1687.28" y="-57.2" font-family="Helvetica,sans-Serif" font-size="14.00" fill="#666666">TEXT</text>
<polygon fill="none" stroke="black" points="1565.59,-47.4 1565.59,-135.8 1756.5,-135.8 1756.5,-47.4 1565.59,-47.4"/>
</g>
<!-- POSTE&#45;&gt;ZUPANIJE -->
<g id="edge7" class="edge">
<title>POSTE:ZUPANIJE_ID_Zupanija&#45;&gt;ZUPANIJE:ID_Zupanija</title>
<path fill="none" stroke="#555555" d="M1149.14,-75.6C1149.14,-0.94 1242.51,-74.13 1317.12,-76.6 1424.89,-80.17 1453.52,-91.03 1557.32,-91.58"/>
<polygon fill="#555555" stroke="#555555" points="1557.07,-94.03 1564.08,-91.6 1557.09,-89.13 1557.07,-94.03"/>
<text xml:space="preserve" text-anchor="middle" x="1441.36" y="-94.14" font-family="Helvetica,sans-Serif" font-size="10.00">ZUPANIJE_ID_Zupanija &#45;&gt; ID_Zupanija</text>
</g>
<!-- P_UCENIK -->
<g id="node8" class="node">
<title>P_UCENIK</title>
<polygon fill="white" stroke="none" points="24.28,-425.4 24.28,-513.8 293.78,-513.8 293.78,-425.4 24.28,-425.4"/>
<polygon fill="#2c3e50" stroke="none" points="25.28,-484 25.28,-512.8 292.78,-512.8 292.78,-484 25.28,-484"/>
<text xml:space="preserve" text-anchor="start" x="123.64" y="-495.2" font-family="Helvetica,sans-Serif" font-weight="bold" font-size="14.00" fill="white">P_UCENIK</text>
<polygon fill="#fff7e0" stroke="none" points="25.28,-455.2 25.28,-484 218.55,-484 218.55,-455.2 25.28,-455.2"/>
<text xml:space="preserve" text-anchor="start" x="31.28" y="-466.4" font-family="Helvetica,sans-Serif" font-weight="bold" font-size="14.00">UCENICI_ID_Ucenik</text>
<text xml:space="preserve" text-anchor="start" x="164.33" y="-466.4" font-family="Helvetica,sans-Serif" font-size="14.00"> </text>
<text xml:space="preserve" text-anchor="start" x="168.22" y="-466.4" font-family="Helvetica,sans-Serif" font-weight="bold" font-size="14.00" fill="#b8860b">PK</text>
<polygon fill="#fff7e0" stroke="none" points="218.55,-455.2 218.55,-484 292.78,-484 292.78,-455.2 218.55,-455.2"/>
<text xml:space="preserve" text-anchor="start" x="224.55" y="-464" font-family="Helvetica,sans-Serif" font-size="14.00" fill="#666666">INTEGER</text>
<polygon fill="#fff7e0" stroke="none" points="25.28,-426.4 25.28,-455.2 218.55,-455.2 218.55,-426.4 25.28,-426.4"/>
<text xml:space="preserve" text-anchor="start" x="31.28" y="-437.6" font-family="Helvetica,sans-Serif" font-weight="bold" font-size="14.00">PREDMETI_ID_Predmet</text>
<text xml:space="preserve" text-anchor="start" x="189.22" y="-437.6" font-family="Helvetica,sans-Serif" font-size="14.00"> </text>
<text xml:space="preserve" text-anchor="start" x="193.11" y="-437.6" font-family="Helvetica,sans-Serif" font-weight="bold" font-size="14.00" fill="#b8860b">PK</text>
<polygon fill="#fff7e0" stroke="none" points="218.55,-426.4 218.55,-455.2 292.78,-455.2 292.78,-426.4 218.55,-426.4"/>
<text xml:space="preserve" text-anchor="start" x="224.55" y="-435.2" font-family="Helvetica,sans-Serif" font-size="14.00" fill="#666666">INTEGER</text>
<polygon fill="none" stroke="black" points="24.28,-425.4 24.28,-513.8 293.78,-513.8 293.78,-425.4 24.28,-425.4"/>
</g>
<!-- P_UCENIK&#45;&gt;PREDMETI -->
<g id="edge8" class="edge">
<title>P_UCENIK:PREDMETI_ID_Predmet&#45;&gt;PREDMETI:ID_Predmet</title>
<path fill="none" stroke="#555555" d="M121.92,-425.4C121.92,-349.02 219.85,-407.19 293.78,-426.4 317.18,-432.48 319.74,-441.96 341.45,-452.6 453.7,-507.62 476.58,-564.39 597.01,-566.91"/>
<polygon fill="#555555" stroke="#555555" points="596.93,-569.36 603.95,-566.98 596.98,-564.46 596.93,-569.36"/>
<text xml:space="preserve" text-anchor="middle" x="441.07" y="-563.51" font-family="Helvetica,sans-Serif" font-size="10.00">PREDMETI_ID_Predmet &#45;&gt; ID_Predmet</text>
</g>
<!-- UCENICI -->
<g id="node11" class="node">
<title>UCENICI</title>
<polygon fill="white" stroke="none" points="576.69,-160.6 576.69,-450.6 823.62,-450.6 823.62,-160.6 576.69,-160.6"/>
<polygon fill="#2c3e50" stroke="none" points="577.69,-420.8 577.69,-449.6 822.62,-449.6 822.62,-420.8 577.69,-420.8"/>
<text xml:space="preserve" text-anchor="start" x="671.37" y="-432" font-family="Helvetica,sans-Serif" font-weight="bold" font-size="14.00" fill="white">UCENICI</text>
<polygon fill="#fff7e0" stroke="none" points="577.69,-392 577.69,-420.8 748.39,-420.8 748.39,-392 577.69,-392"/>
<text xml:space="preserve" text-anchor="start" x="583.69" y="-403.2" font-family="Helvetica,sans-Serif" font-weight="bold" font-size="14.00">ID_Ucenik</text>
<text xml:space="preserve" text-anchor="start" x="651.38" y="-403.2" font-family="Helvetica,sans-Serif" font-size="14.00"> </text>
<text xml:space="preserve" text-anchor="start" x="655.27" y="-403.2" font-family="Helvetica,sans-Serif" font-weight="bold" font-size="14.00" fill="#b8860b">PK</text>
<polygon fill="#fff7e0" stroke="none" points="748.39,-392 748.39,-420.8 822.62,-420.8 822.62,-392 748.39,-392"/>
<text xml:space="preserve" text-anchor="start" x="754.39" y="-400.8" font-family="Helvetica,sans-Serif" font-size="14.00" fill="#666666">INTEGER</text>
<text xml:space="preserve" text-anchor="start" x="583.69" y="-372" font-family="Helvetica,sans-Serif" font-size="14.00">Ime</text>
<text xml:space="preserve" text-anchor="start" x="754.39" y="-372" font-family="Helvetica,sans-Serif" font-size="14.00" fill="#666666">TEXT</text>
<text xml:space="preserve" text-anchor="start" x="583.69" y="-343.2" font-family="Helvetica,sans-Serif" font-size="14.00">Prezime</text>
<text xml:space="preserve" text-anchor="start" x="754.39" y="-343.2" font-family="Helvetica,sans-Serif" font-size="14.00" fill="#666666">TEXT</text>
<text xml:space="preserve" text-anchor="start" x="583.69" y="-314.4" font-family="Helvetica,sans-Serif" font-size="14.00">Datum_rodjenja</text>
<text xml:space="preserve" text-anchor="start" x="754.39" y="-314.4" font-family="Helvetica,sans-Serif" font-size="14.00" fill="#666666">TEXT</text>
<text xml:space="preserve" text-anchor="start" x="583.69" y="-285.6" font-family="Helvetica,sans-Serif" font-size="14.00">OIB</text>
<text xml:space="preserve" text-anchor="start" x="754.39" y="-285.6" font-family="Helvetica,sans-Serif" font-size="14.00" fill="#666666">INTEGER</text>
<text xml:space="preserve" text-anchor="start" x="583.69" y="-256.8" font-family="Helvetica,sans-Serif" font-size="14.00">Ime_oca</text>
<text xml:space="preserve" text-anchor="start" x="754.39" y="-256.8" font-family="Helvetica,sans-Serif" font-size="14.00" fill="#666666">TEXT</text>
<text xml:space="preserve" text-anchor="start" x="583.69" y="-228" font-family="Helvetica,sans-Serif" font-size="14.00">Adresa</text>
<text xml:space="preserve" text-anchor="start" x="754.39" y="-228" font-family="Helvetica,sans-Serif" font-size="14.00" fill="#666666">TEXT</text>
<text xml:space="preserve" text-anchor="start" x="583.69" y="-201.6" font-family="Helvetica,sans-Serif" font-size="14.00">RAZREDI_ID_Razred </text>
<text xml:space="preserve" text-anchor="start" x="723.73" y="-201.6" font-family="Helvetica,sans-Serif" font-weight="bold" font-size="14.00" fill="#4169e1">FK</text>
<text xml:space="preserve" text-anchor="start" x="754.39" y="-199.2" font-family="Helvetica,sans-Serif" font-size="14.00" fill="#666666">INTEGER</text>
<text xml:space="preserve" text-anchor="start" x="583.69" y="-172.8" font-family="Helvetica,sans-Serif" font-size="14.00">POSTE_ID_Posta </text>
<text xml:space="preserve" text-anchor="start" x="700.4" y="-172.8" font-family="Helvetica,sans-Serif" font-weight="bold" font-size="14.00" fill="#4169e1">FK</text>
<text xml:space="preserve" text-anchor="start" x="754.39" y="-170.4" font-family="Helvetica,sans-Serif" font-size="14.00" fill="#666666">INTEGER</text>
<polygon fill="none" stroke="black" points="576.69,-160.6 576.69,-450.6 823.62,-450.6 823.62,-160.6 576.69,-160.6"/>
</g>
<!-- P_UCENIK&#45;&gt;UCENICI -->
<g id="edge9" class="edge">
<title>P_UCENIK:UCENICI_ID_Ucenik&#45;&gt;UCENICI:ID_Ucenik</title>
<path fill="none" stroke="#555555" d="M24.28,-469.6C4.64,-469.6 11.23,-500.06 25.28,-513.8 110.61,-597.22 190.53,-573.64 293.78,-513.8 330.65,-492.43 305.72,-453.83 341.45,-430.6 427.16,-374.88 469.25,-404.66 568.2,-406.33"/>
<polygon fill="#555555" stroke="#555555" points="568.15,-408.78 575.17,-406.39 568.19,-403.88 568.15,-408.78"/>
<text xml:space="preserve" text-anchor="middle" x="441.07" y="-433.6" font-family="Helvetica,sans-Serif" font-size="10.00">UCENICI_ID_Ucenik &#45;&gt; ID_Ucenik</text>
</g>
<!-- SKOLE -->
<g id="node10" class="node">
<title>SKOLE</title>
<polygon fill="white" stroke="none" points="1575.7,-343 1575.7,-460.2 1746.4,-460.2 1746.4,-343 1575.7,-343"/>
<polygon fill="#2c3e50" stroke="none" points="1576.7,-430.4 1576.7,-459.2 1745.4,-459.2 1745.4,-430.4 1576.7,-430.4"/>
<text xml:space="preserve" text-anchor="start" x="1636.93" y="-441.6" font-family="Helvetica,sans-Serif" font-weight="bold" font-size="14.00" fill="white">SKOLE</text>
<polygon fill="#fff7e0" stroke="none" points="1576.7,-401.6 1576.7,-430.4 1671.17,-430.4 1671.17,-401.6 1576.7,-401.6"/>
<text xml:space="preserve" text-anchor="start" x="1582.7" y="-412.8" font-family="Helvetica,sans-Serif" font-weight="bold" font-size="14.00">ID_Skola</text>
<text xml:space="preserve" text-anchor="start" x="1641.83" y="-412.8" font-family="Helvetica,sans-Serif" font-size="14.00"> </text>
<text xml:space="preserve" text-anchor="start" x="1645.72" y="-412.8" font-family="Helvetica,sans-Serif" font-weight="bold" font-size="14.00" fill="#b8860b">PK</text>
<polygon fill="#fff7e0" stroke="none" points="1671.17,-401.6 1671.17,-430.4 1745.4,-430.4 1745.4,-401.6 1671.17,-401.6"/>
<text xml:space="preserve" text-anchor="start" x="1677.17" y="-410.4" font-family="Helvetica,sans-Serif" font-size="14.00" fill="#666666">INTEGER</text>
<text xml:space="preserve" text-anchor="start" x="1582.7" y="-381.6" font-family="Helvetica,sans-Serif" font-size="14.00">Naziv</text>
<text xml:space="preserve" text-anchor="start" x="1677.17" y="-381.6" font-family="Helvetica,sans-Serif" font-size="14.00" fill="#666666">TEXT</text>
<text xml:space="preserve" text-anchor="start" x="1582.7" y="-352.8" font-family="Helvetica,sans-Serif" font-size="14.00">Adresa</text>
<text xml:space="preserve" text-anchor="start" x="1677.17" y="-352.8" font-family="Helvetica,sans-Serif" font-size="14.00" fill="#666666">TEXT</text>
<polygon fill="none" stroke="black" points="1575.7,-343 1575.7,-460.2 1746.4,-460.2 1746.4,-343 1575.7,-343"/>
</g>
<!-- RAZREDI&#45;&gt;SKOLE -->
<g id="edge10" class="edge">
<title>RAZREDI:SKOLE_ID_Skola&#45;&gt;SKOLE:ID_Skola</title>
<path fill="none" stroke="#555555" d="M1149.14,-399.6C1149.14,-333.76 1231.48,-398.56 1297.29,-400.6 1418.37,-404.36 1450.35,-415.48 1567.49,-415.98"/>
<polygon fill="#555555" stroke="#555555" points="1567.18,-418.43 1574.18,-416 1567.19,-413.53 1567.18,-418.43"/>
<text xml:space="preserve" text-anchor="middle" x="1441.36" y="-418.28" font-family="Helvetica,sans-Serif" font-size="10.00">SKOLE_ID_Skola &#45;&gt; ID_Skola</text>
</g>
<!-- UCENICI&#45;&gt;POSTE -->
<g id="edge11" class="edge">
<title>UCENICI:POSTE_ID_Posta&#45;&gt;POSTE:ID_Posta</title>
<path fill="none" stroke="#555555" d="M663.04,-160.6C663.04,-124.92 787.96,-160.27 823.62,-161.6 923.98,-165.33 950.7,-176.75 1047.09,-177.37"/>
<polygon fill="#555555" stroke="#555555" points="1046.87,-179.82 1053.88,-177.4 1046.89,-174.92 1046.87,-179.82"/>
<text xml:space="preserve" text-anchor="middle" x="939.51" y="-179.75" font-family="Helvetica,sans-Serif" font-size="10.00">POSTE_ID_Posta &#45;&gt; ID_Posta</text>
</g>
<!-- UCENICI&#45;&gt;RAZREDI -->
<g id="edge12" class="edge">
<title>UCENICI:RAZREDI_ID_Razred&#45;&gt;RAZREDI:ID_Razred</title>
<path fill="none" stroke="#555555" d="M576.69,-204.8C557.04,-204.8 563.64,-174.34 577.69,-160.6 597.23,-141.5 799.22,-148.29 823.62,-160.6 863.5,-180.73 1011.96,-469.71 1067.19,-499.01"/>
<polygon fill="#555555" stroke="#555555" points="1066.37,-501.32 1073.78,-500.97 1067.77,-496.62 1066.37,-501.32"/>
<text xml:space="preserve" text-anchor="middle" x="939.51" y="-447.94" font-family="Helvetica,sans-Serif" font-size="10.00">RAZREDI_ID_Razred &#45;&gt; ID_Razred</text>
</g>
<!-- ZAVRSNA_O -->
<g id="node12" class="node">
<title>ZAVRSNA_O</title>
<polygon fill="white" stroke="none" points="36.33,-207.4 36.33,-295.8 281.73,-295.8 281.73,-207.4 36.33,-207.4"/>
<polygon fill="#2c3e50" stroke="none" points="37.33,-266 37.33,-294.8 280.73,-294.8 280.73,-266 37.33,-266"/>
<text xml:space="preserve" text-anchor="start" x="115.86" y="-277.2" font-family="Helvetica,sans-Serif" font-weight="bold" font-size="14.00" fill="white">ZAVRSNA_O</text>
<polygon fill="#fff7e0" stroke="none" points="37.33,-237.2 37.33,-266 206.51,-266 206.51,-237.2 37.33,-237.2"/>
<text xml:space="preserve" text-anchor="start" x="43.33" y="-248.4" font-family="Helvetica,sans-Serif" font-weight="bold" font-size="14.00">UCENICI_ID_Ucenik</text>
<text xml:space="preserve" text-anchor="start" x="176.37" y="-248.4" font-family="Helvetica,sans-Serif" font-size="14.00"> </text>
<text xml:space="preserve" text-anchor="start" x="180.26" y="-248.4" font-family="Helvetica,sans-Serif" font-weight="bold" font-size="14.00" fill="#b8860b">PK</text>
<polygon fill="#fff7e0" stroke="none" points="206.51,-237.2 206.51,-266 280.73,-266 280.73,-237.2 206.51,-237.2"/>
<text xml:space="preserve" text-anchor="start" x="212.51" y="-246" font-family="Helvetica,sans-Serif" font-size="14.00" fill="#666666">INTEGER</text>
<polygon fill="#fff7e0" stroke="none" points="37.33,-208.4 37.33,-237.2 206.51,-237.2 206.51,-208.4 37.33,-208.4"/>
<text xml:space="preserve" text-anchor="start" x="43.33" y="-219.6" font-family="Helvetica,sans-Serif" font-weight="bold" font-size="14.00">OCJENE_ID_Ocjena</text>
<text xml:space="preserve" text-anchor="start" x="177.17" y="-219.6" font-family="Helvetica,sans-Serif" font-size="14.00"> </text>
<text xml:space="preserve" text-anchor="start" x="181.06" y="-219.6" font-family="Helvetica,sans-Serif" font-weight="bold" font-size="14.00" fill="#b8860b">PK</text>
<polygon fill="#fff7e0" stroke="none" points="206.51,-208.4 206.51,-237.2 280.73,-237.2 280.73,-208.4 206.51,-208.4"/>
<text xml:space="preserve" text-anchor="start" x="212.51" y="-217.2" font-family="Helvetica,sans-Serif" font-size="14.00" fill="#666666">INTEGER</text>
<polygon fill="none" stroke="black" points="36.33,-207.4 36.33,-295.8 281.73,-295.8 281.73,-207.4 36.33,-207.4"/>
</g>
<!-- ZAVRSNA_O&#45;&gt;OCJENE -->
<g id="edge13" class="edge">
<title>ZAVRSNA_O:OCJENE_ID_Ocjena&#45;&gt;OCJENE:ID_Ocjena</title>
<path fill="none" stroke="#555555" d="M121.92,-207.4C121.92,14.91 378.69,-70.83 601.87,-72.96"/>
<polygon fill="#555555" stroke="#555555" points="601.61,-75.41 608.62,-72.99 601.63,-70.51 601.61,-75.41"/>
<text xml:space="preserve" text-anchor="middle" x="441.07" y="-72.94" font-family="Helvetica,sans-Serif" font-size="10.00">OCJENE_ID_Ocjena &#45;&gt; ID_Ocjena</text>
</g>
<!-- ZAVRSNA_O&#45;&gt;UCENICI -->
<g id="edge14" class="edge">
<title>ZAVRSNA_O:UCENICI_ID_Ucenik&#45;&gt;UCENICI:ID_Ucenik</title>
<path fill="none" stroke="#555555" d="M36.33,-251.6C16.68,-251.6 24.26,-281.13 37.33,-295.8 187.58,-464.43 341.71,-258.75 540.69,-365.6 559.16,-375.52 554.48,-398.92 568.68,-404.96"/>
<polygon fill="#555555" stroke="#555555" points="567.87,-407.3 575.2,-406.13 568.74,-402.48 567.87,-407.3"/>
<text xml:space="preserve" text-anchor="middle" x="441.07" y="-368.6" font-family="Helvetica,sans-Serif" font-size="10.00">UCENICI_ID_Ucenik &#45;&gt; ID_Ucenik</text>
</g>
</g>
</svg>
